<?xml version="1.0" encoding="UTF-8" standalone="no"?>
<!-- Created with Inkscape (http://www.inkscape.org/) -->

<svg
   xmlns:dc="http://purl.org/dc/elements/1.1/"
   xmlns:cc="http://creativecommons.org/ns#"
   xmlns:rdf="http://www.w3.org/1999/02/22-rdf-syntax-ns#"
   xmlns:svg="http://www.w3.org/2000/svg"
   xmlns="http://www.w3.org/2000/svg"
   xmlns:sodipodi="http://sodipodi.sourceforge.net/DTD/sodipodi-0.dtd"
   xmlns:inkscape="http://www.inkscape.org/namespaces/inkscape"
   width="460"
   height="462.76553"
   id="svg2"
   version="1.1"
   inkscape:version="0.48.0 r9654"
   sodipodi:docname="jquizzyva.svg">
  <defs
     id="defs4">
    <clipPath
       clipPathUnits="userSpaceOnUse"
       id="clipPath3982">
      <rect
         style="opacity:0.5;fill:#000000;stroke:#ffffff;stroke-opacity:1"
         id="rect3984"
         width="630.33521"
         height="614.17273"
         x="-377.79706"
         y="159.38733"
         ry="4.0406103" />
    </clipPath>
    <clipPath
       clipPathUnits="userSpaceOnUse"
       id="clipPath4517">
      <rect
         style="fill:#800000;stroke:#ff0000;stroke-opacity:1"
         id="rect4519"
         width="634"
         height="675"
         x="-377.9566"
         y="160.66676"
         ry="4.0406103" />
    </clipPath>
    <clipPath
       clipPathUnits="userSpaceOnUse"
       id="clipPath3163">
      <path
         style="opacity:0.4;fill:#2b0000;stroke:#2b0000;stroke-opacity:1"
         d="m 26.6875,-10.9375 c -2.23849,0 -4.03125,1.79275 -4.03125,4.03125 l 0,591.9375 c 0,2.2385 1.79276,4.03125 4.03125,4.03125 l 591.90625,0 c 2.2385,0 4.0625,-1.79275 4.0625,-4.03125 l 0,-591.9375 c 0,-2.2385 -1.824,-4.03125 -4.0625,-4.03125 l -591.90625,0 z"
         id="path3165"
         inkscape:connector-curvature="0" />
    </clipPath>
    <clipPath
       clipPathUnits="userSpaceOnUse"
       id="clipPath3299">
      <rect
         style="opacity:0.4;fill:#2b0000;stroke:#2b0000;stroke-opacity:1"
         id="rect3301"
         width="500"
         height="500"
         x="26.999996"
         y="2.9999926" />
    </clipPath>
    <clipPath
       clipPathUnits="userSpaceOnUse"
       id="clipPath2997">
      <rect
         style="opacity:0.3;fill:#ffffff;stroke:none"
         id="rect2999"
         width="460"
         height="462.76553"
         x="26.999996"
         y="2.9999926" />
    </clipPath>
  </defs>
  <sodipodi:namedview
     id="base"
     pagecolor="#ffffff"
     bordercolor="#666666"
     borderopacity="1.0"
     inkscape:pageopacity="0.0"
     inkscape:pageshadow="2"
     inkscape:zoom="1"
     inkscape:cx="80.504119"
     inkscape:cy="126.92707"
     inkscape:document-units="px"
     inkscape:current-layer="layer1"
     showgrid="false"
     fit-margin-top="0"
     fit-margin-left="0"
     fit-margin-right="0"
     fit-margin-bottom="0"
     inkscape:window-width="1920"
     inkscape:window-height="1054"
     inkscape:window-x="1916"
     inkscape:window-y="-4"
     inkscape:window-maximized="1" />
  <metadata
     id="metadata7">
    <rdf:RDF>
      <cc:Work
         rdf:about="">
        <dc:format>image/svg+xml</dc:format>
        <dc:type
           rdf:resource="http://purl.org/dc/dcmitype/StillImage" />
        <dc:title />
      </cc:Work>
    </rdf:RDF>
  </metadata>
  <g
     inkscape:label="Layer 1"
     inkscape:groupmode="layer"
     id="layer1"
     transform="translate(-76.999992,-162.36218)">
    <path
       style="fill:#ad0e0c"
       clip-path="url(#clipPath2997)"
       d="m 845.375,-181.875 c -0.66143,0.008 -0.27866,1.11691 0.3125,2.4375 1.0847,0.7975 2.02879,1.56663 2.90625,2.28125 -0.52905,-2.01287 -1.15443,-4.14326 -2.9375,-4.6875 -0.12135,-0.037 -0.19629,-0.0324 -0.28125,-0.0312 z M 213.53125,-29.96875 c -3.47672,-0.01835 -7.54587,0.05181 -22.625,0.09375 -2.71207,-0.05033 -5.45263,0.04244 -8.1875,0.0625 C 174.26099,-19.552005 158.37501,-12 135,-12 l -29.5,0 c -4.41667,0 -8.83748,0.191343 -13.25,0 -8.21089,-0.356054 -16.167407,-1.653831 -24.375,-1.5 0.561629,0.152114 1.184128,0.17689 1.6875,0.46875 0.137835,0.07992 -0.220281,0.243203 -0.375,0.28125 -2.684965,0.660267 -5.353132,1.415186 -8.09375,1.78125 -0.599958,0.08014 -1.209378,0.153261 -1.8125,0.21875 -1.107796,0.401182 -1.910565,0.544841 -2.15625,0.21875 -4.181033,0.319325 -8.396406,0.208947 -12.53125,-0.5 -3.416456,0.07656 -6.102881,-0.127754 -9.625,-0.4375 -0.65529,2.374598 -1.301167,4.755812 -2,7.1875 -1.079948,3.757835 -7.808947,0.282491 -11.71875,0.25 C 12.456948,-4.10432 3.660956,-4.350779 -5.125,-4.6875 -5.1304,-4.58324 -5.15098,-4.479267 -5.15625,-4.375 -5.345327,-0.634589 -5.481167,3.099446 -5.5625,6.84375 -5.5709,7.231524 -5.52642,7.609621 -5.5,8 c 0.08313,0.2919533 0.168005,0.5827656 0.25,0.875 1.689685,21.426835 -1.680888,42.722107 -2.3125,64.09375 0.05492,5.852559 -0.01544,7.384634 0.28125,12.625 -6.412734,14.255998 -11.000675,24.93489 -14.3125,33.0625 -0.03993,0.76256 -0.0845,1.46577 -0.125,2.1875 0.766639,-2.16372 1.568778,-4.3161 2.4375,-6.4375 0.433302,-1.05811 -0.0614,2.33787 -0.46875,3.40625 -0.661498,1.73494 -1.373716,3.4428 -2.09375,5.15625 -0.895928,14.9086 -1.957046,21.36827 -3.875,36.59375 0.817397,8.59359 0.526171,17.25795 -0.125,25.875 5.941766,-0.0718 4.924948,3.08801 -0.75,8.4375 -0.220962,2.35773 -0.433809,4.71218 -0.65625,7.0625 -0.162613,1.6967 -0.419548,3.39118 -0.5,5.09375 0.06466,-0.1485 0.290669,-0.97316 0.3125,-0.75 0.665464,6.80248 -0.628004,17.64018 -1.15625,22.71875 -0.185458,1.783 -0.466323,3.23813 -0.75,4.46875 0.291662,4.0798 0.883082,5.23689 -0.0625,3.84375 0.09908,40.19281 2.282846,43.30105 -20.9375,46.21875 -0.0309,0.38301 -0.07401,0.7717 -0.09375,1.15625 -0.592132,7.22975 -0.793122,9.23848 -1.15625,17.3125 8.313541,-0.1675 18.787724,-0.33307 30.3125,-0.40625 25.025,-0.159 52.7,-0.62875 61.5,-1.03125 8.8,-0.4026 18.03765,-0.79915 20.53125,-0.90625 1.3612,-0.0585 2.85515,-0.27618 4.15625,-0.5625 1.6824,0.12285 2.40585,0.38517 2.59375,0.875 0.1595,0.41612 -0.1777,1.85757 -0.8125,3.6875 -1.7266,2.23218 -2.71935,4.53055 -3.03125,7.15625 -1.7022,3.69607 -3.7454,8.09871 -5,10.8125 -0.0784,0.16951 -0.13965,0.37932 -0.21875,0.5625 -0.005,0.0124 -0.02625,0.0188 -0.03125,0.0312 -0.3279,0.3034 -0.8773,1.2267 -1.625,2.875 -2.3492,5.1788 -3.9753,19.16865 -2.75,23.53125 0.1221,0.43463 0.23875,0.98817 0.34375,1.5625 0.0126,0.069 0.01895,0.14845 0.03125,0.21875 0.0942,1.55226 0.23515,2.97839 0.40625,4.34375 0.003,0.14045 0.03125,0.30534 0.03125,0.4375 0,1.5132 0.2658,2.81343 0.75,3.9375 0.2234,0.86415 0.44715,1.58547 0.71875,2.125 0.5861,1.16414 1.27395,1.94219 2.78125,2.53125 2.9527,2.15769 7.91585,3.22273 15.28125,3.375 7.505,0.1552 10.31954,0.2055 11.53125,-0.34375 0.0126,0.003 0.01915,-0.003 0.03125,0 0.49824,0.11122 0.78125,0.2207 0.78125,0.3125 0,1.948 -2.59316,7.85835 -4.65625,10.59375 -1.3289,1.7621 -2.34375,4.49735 -2.34375,6.34375 0,1.51471 -0.1585,2.43157 -0.75,3.09375 -0.0653,0.0732 -0.14265,0.15075 -0.21875,0.21875 -0.4592,0.41008 -1.1197,0.70663 -2.0625,1.0625 -1.348,0.50883 -2.07525,0.91671 -2.40625,1.5 l -0.5625,0.21875 0.375,0.46875 c -0.0441,0.43995 0.0019,0.95199 0.15625,1.65625 0.4708,2.1438 0.17005,2.80375 -1.53125,3.34375 -1.9116,0.6067 -1.98845,0.8094 -0.53125,1.875 2.10433,1.5387 2.40895,3.777 0.09375,2.875 -3.1059,-1.2102 -5.0508,-1.5215 -5.375,1.3125 -1.965462,0.44396 -1.446413,1.03208 -3,1.8125 0.125308,-0.11953 0.227525,-0.2375 0.3125,-0.375 0.3399,-0.55 0.175,-1 -0.375,-1 -0.55,0 -1.2851,0.45 -1.625,1 -0.292837,0.47385 -0.192492,0.83592 0.1875,0.9375 -0.590349,0.18288 -1.268107,0.39361 -2.1875,0.59375 -0.6954,-0.21548 -1.76445,0.0157 -3.28125,0.65625 -0.0219,0.002 -0.0409,-0.002 -0.0625,0 -1.0311,0.0993 -1.7546,0.52535 -2.625,1.34375 -0.8856,0.48812 -1.8604,1.0198 -2.9375,1.6875 -5.464424,3.38775 -9.525771,7.52359 -8.875,8.84375 -0.169638,0.19157 -0.370312,0.48013 -0.625,0.84375 -1.214,1.7333 -3.5355,2.97665 -4.75,1.96875 -1.1908,-0.9883 -1.67825,-0.963 -2.40625,0.1875 -0.336986,0.53247 -0.616745,1.2554 -0.78125,1.875 0.147164,0.0268 0.283655,0.0503 0.40625,0.0937 1.151418,0.40925 2.094943,1.20168 3.0625,1.90625 0.398031,0.16004 0.770615,0.36751 1.1875,0.46875 0.491811,0.11943 1.372401,0.0211 2,-0.0625 0.149588,-0.61877 0.386328,-1.29817 0.71875,-2.09375 0.851633,-2.03833 1.520072,-3.88388 1.71875,-4.84375 0.25104,0.0652 0.57271,0.11324 1,0.0625 1.2149,-0.1443 6.6066,-3.57125 8.25,-3.65625 1.5469,-0.0799 3.33685,-0.66231 4.15625,-1.34375 1.4441,-0.26002 2.80025,-0.53924 3.90625,-0.8125 -0.0195,0.15362 -0.06151,0.34161 -0.15625,0.5625 1.271501,-1.24761 3.491688,-2.74327 6.96875,-3.71875 5.212375,-1.46231 8.60541,-3.86663 8.53125,-2.25 0.408435,-0.79009 1.157557,-1.70707 2.375,-1.9375 1.8863,-0.35709 3.18505,-0.76381 4.28125,-1.625 1.20001,-0.2308 1.71136,-0.8967 2.34375,-2.4375 0.26802,-0.65297 0.52249,-1.29623 0.75,-1.90625 0.009,-0.0228 0.02335,-0.0397 0.03125,-0.0625 0.42411,-0.84578 0.86917,-1.77887 1.375,-2.90625 1.5134,-3.3729 3.24175,-6.4405 3.84375,-6.8125 1.6518,-1.0208 1.31225,-2.8469 -0.40625,-2.1875 -2.2898,0.8787 -1.816,-1.08005 1.75,-7.21875 1.7875,-3.077 3.74815,-6.9601 4.34375,-8.625 0.33663,-0.941 0.80196,-1.66077 1.4375,-2.21875 1.05524,-0.0517 2.51445,-0.006 4.6875,0.125 2.25121,0.13564 4.76158,0.50617 6.875,0.96875 -0.37903,0.51346 -1.24947,1.13775 -2.65625,1.96875 -1.6881,0.9972 -2.83835,2.068 -2.53125,2.375 0.18146,0.18152 3.12651,0.41517 7.25,0.59375 -0.54055,0.70189 0.68638,0.66798 5.59375,0.28125 0.37572,-0.0296 0.77927,-0.044 1.1875,-0.0625 1.0564,0.027 2.04757,0.0414 3.15625,0.0625 1.44963,0.0276 2.27969,0.0445 3.5,0.0625 1.67973,0.11946 3.28826,0.29417 4.46875,0.53125 4.48477,0.90067 7.80849,0.47434 9.625,-1.125 1.03131,-0.2671 1.89828,-0.64265 2.84375,-1.125 2.1177,-1.0804 4.21425,-2.5639 4.65625,-3.3125 0.24065,-0.40758 0.54971,-0.75515 0.875,-1.09375 2.972,-0.89834 6.2494,-1.5743 8.5625,-1.5625 1.42458,0.007 3.04972,0.4055 4.4375,1.03125 0.012,0.007 0.0192,0.0242 0.0312,0.0312 0.35395,0.21875 0.737,0.40541 1.125,0.59375 0.0123,0.006 0.019,0.0254 0.0312,0.0312 0.20737,0.13163 0.41332,0.26432 0.59375,0.40625 4.3574,3.4275 9.037,3.6342 12.6875,0.5625 0.0987,-0.0831 0.18675,-0.14085 0.28125,-0.21875 0.7487,-0.31749 1.39993,-0.71249 1.90625,-1.1875 0.13774,-0.12922 0.27298,-0.22868 0.40625,-0.34375 1.81591,-0.7935 4.24174,-0.875 10.5,-0.875 6.9802,0 13.6701,-0.8025 22.1875,-2.625 15.288,-3.2712 21.6724,-4.51365 24.0625,-4.71875 1.26813,-0.10875 2.57454,1.3205 4.5,4.96875 0.0763,0.28825 0.14155,0.53286 0.21875,0.84375 0.6811,2.7427 1.88781,6.0097 2.6875,7.25 0.9837,1.5255 1.13455,2.6577 0.46875,3.5 -1.28909,1.6315 -2.1875,6.75 -1.1875,6.75 0.42789,0 1.02205,-0.5625 1.34375,-1.25 0.3217,-0.6875 0.3633,0.4375 0.0625,2.5 -0.12267,0.84141 -0.16305,1.59127 -0.15625,2.21875 -0.25734,0.78352 -0.21957,1.3225 0.1875,1.3125 0.064,0.14085 0.1218,0.21875 0.21875,0.21875 0.12756,0 0.30389,0.13834 0.5,0.34375 -0.41086,1.14875 -0.23654,1.80918 0.71875,1.21875 0.0387,-0.0242 0.0843,-0.0134 0.125,-0.0312 0.30232,0.50909 0.59683,1.0693 0.875,1.71875 0.7655,1.7875 1.60005,3.62785 1.84375,4.09375 0.2437,0.4659 -0.5125,0.34765 -1.6875,-0.28125 -2.7219,-1.4566 -4.09375,-0.5943 -4.09375,2.5625 0,3.0918 -2.4587,8.0449 -5.6875,11.5 -1.5867,1.6979 -2.45775,3.8106 -2.46875,6 -0.009,1.8586 -0.6733,5.625 -1.5,8.375 -0.3733,1.24192 -0.66554,2.22845 -1.0625,3.53125 -0.18766,0.22626 -0.32985,0.48412 -0.40625,0.75 -0.2767,0.9625 -0.82255,2.5375 -1.21875,3.5 -0.31791,0.77216 -0.3375,1.21424 0,1.46875 -0.12033,0.88719 0.0545,1.34777 0.625,1.65625 0.0961,0.44768 0.58862,0.625 1.5625,0.625 0.0311,0 0.0626,-6.9e-4 0.0937,0 0.74822,0.2908 1.52268,0.64613 2.0625,0.9375 0.2582,0.13938 0.47579,0.25745 0.6875,0.34375 0.80551,0.99562 1.71975,0.26643 1.71875,-0.90625 0.23993,-0.93989 0.31215,-2.57455 0.34375,-5.125 0.0986,-7.9637 1.49835,-11.28125 4.78125,-11.28125 2.09909,0 2.4924,-0.35475 2,-1.90625 -0.3344,-1.0537 -0.1485,-2.23155 0.4375,-2.59375 0.586,-0.3622 1.0165,-0.2658 0.9375,0.1875 -0.3481,2.0038 0.1701,3.39525 1.0625,2.84375 0.5343,-0.3302 0.8718,-3.261 0.75,-6.5 -0.14075,-3.74148 -0.002,-5.31485 0.96875,-6.84375 0.31959,-0.20266 0.6453,-0.40464 1.09375,-0.71875 2.06879,-1.44901 2.71606,-2.60182 2.15625,-3.15625 1.46135,-1.97942 1.21465,-3.04403 -0.625,-3.75 -0.98934,-0.37965 -1.0265,-0.80192 0.15625,-1.78125 0.19834,-0.0381 0.36499,-0.0792 0.59375,-0.125 1.8512,-0.3702 3.7315,-1.044 4.1875,-1.5 0.47922,-0.47919 0.47892,-1.35929 0.125,-2.34375 0.90243,-1.29454 0.52506,-2.48325 -0.84375,-4.4375 -0.8021,-1.1451 -1.93505,-5.1431 -2.53125,-8.875 -1.1234,-7.0323 -2.01795,-9.3314 -5.15625,-13.375 -1.11384,-1.43518 -1.70666,-3.25212 -1.78125,-4.6875 0.99283,-2.08569 3.3295,-1.50269 8.90625,1 3.17711,1.4258 6.5006,2.59375 7.375,2.59375 0.27685,0 0.54613,-0.069 0.8125,-0.1875 0.38718,0.0926 0.70648,0.15625 0.90625,0.15625 1.9678,0 3.5887,-3.8616 3.0625,-7.3125 -0.152,-0.9972 0.4471,-2.89785 1.3125,-4.21875 0.8655,-1.3208 1.5525,-3.8807 1.5625,-5.6875 0.009,-1.95379 0.15584,-3.20837 0.84375,-4.25 0.0132,-0.0199 0.0177,-0.0427 0.0312,-0.0625 1.0312,-0.8623 2.51353,-1.74663 4.53125,-2.875 1.06027,-0.59294 1.94392,-1.05217 2.78125,-1.46875 2.16667,-0.9068 4.494,-1.5651 6.78125,-1.96875 0.99758,-0.0804 2.11003,-0.125 3.4375,-0.125 3.11143,0 6.30259,0.48068 8.9375,1.1875 3.47798,2.02875 11.65625,11.12767 11.65625,13.03125 0,0.8076 0.94115,2.69095 2.09375,4.15625 1.1527,1.4654 1.8226,3.3469 1.5,4.1875 -0.8951,2.3326 2.8499,8.77685 7.0625,12.15625 3.3775,2.7096 3.62575,3.2053 2.34375,4.75 -1.253,1.5097 -1.19625,1.874 0.34375,3 0.61158,0.44725 2.0317,0.95393 3.625,1.375 0.005,0.007 -0.005,0.0242 0,0.0312 0.43581,0.60525 1.08005,0.9564 2.03125,1.21875 1.375,0.3793 4.3,0.714 6.5,0.75 0.11916,0.002 0.19893,-0.003 0.3125,0 0.0114,2.6e-4 0.0199,-2.6e-4 0.0312,0 3.92288,1.35253 7.06371,3.57422 11.15625,7.5625 0.6909,0.6733 1.5032,1.40679 2.375,2.125 3.51251,3.54486 8.98022,7.46392 12.46875,8.40625 0.61735,0.16678 1.09702,0.2871 1.46875,0.3125 0.008,0.004 0.0236,-0.004 0.0312,0 2.57945,1.39252 3.32209,2.13035 3.34375,3.28125 2e-4,0.0106 -8e-5,0.0206 0,0.0312 -0.38907,1.08441 -0.51229,2.05027 -0.34375,2.9375 0.01,0.0502 -0.0113,0.10665 0,0.15625 0.0567,0.68431 0.29641,1.22554 0.78125,1.8125 3.2e-4,0.011 -4.2e-4,0.0204 0,0.0312 0.0414,1.06244 0.58315,1.79945 1.625,2.40625 1.30631,0.76085 2.1155,1.07841 3.09375,0.84375 1.35196,0.28151 2.44789,-0.45873 4.21875,-2.34375 0.32269,-0.34348 0.63766,-0.64789 0.9375,-0.90625 1.67299,-1.10013 2.61571,-1.24987 3.40625,-0.59375 0.27303,0.2266 0.56943,0.36669 0.90625,0.4375 L 378,404.71875 c 0.02,0.50326 0.034,1.18862 0.0625,1.78125 0.0637,0.0124 0.12061,0.0245 0.1875,0.0312 -0.0435,0.43796 -0.0681,0.88652 -0.0937,1.375 0.22741,4.23135 0.58643,9.37605 0.96875,11.21875 0.2853,1.375 0.788,4.665 1.125,7.3125 0.4975,3.9089 0.86485,4.6036 1.96875,3.6875 1.0541,-0.8748 1.6111,-0.661 2.5,1 0.6305,1.1781 1.73715,1.93695 2.46875,1.65625 1.23756,-0.47496 3.03552,3.61996 4,8 -0.50505,0.38289 -0.38345,0.67204 0.21875,1.09375 0.23389,1.26345 0.4266,2.53509 0.46875,3.6875 -0.74867,0.65226 -1.09355,1.96634 -0.625,3.1875 0.1432,0.37292 0.37338,0.6716 0.625,0.84375 -0.19338,0.9975 0.045,1.49065 0.6875,1.40625 0.42981,0.39591 1.01967,0.15506 1.65625,-0.875 0.3399,-0.55 1.4901,-1 2.5625,-1 1.782,0 1.9044,-0.4947 1.3125,-5.75 -0.7253,-6.4396 -1.12205,-7.2893 -2.34375,-5.3125 -0.9425,1.5248 -4.03125,0.7548 -4.03125,-1 0,-0.6187 0.9,-1.36855 2,-1.65625 2.0453,-0.5348 2.51385,-1.42365 1.34375,-2.59375 -0.3619,-0.3619 -1.26975,-0.16315 -2.03125,0.46875 -1.49524,1.2409 -2.71455,0.61917 -2.84375,-0.6875 0.22068,0.0884 0.45573,0.0926 0.65625,-0.0312 0.73663,-0.45528 0.5269,-1.43788 -0.125,-2 0.0692,-0.11826 0.13509,-0.22431 0.21875,-0.34375 0.8005,-1.1428 1.7618,-1.76945 2.125,-1.40625 0.3632,0.3632 0.65625,0.19445 0.65625,-0.34375 0,-0.5382 -1.2705,-1.89115 -2.8125,-3.03125 -1.6641,-1.2303 -3.78275,-4.5721 -5.21875,-8.1875 -1.30534,-3.28628 -2.5235,-9.57138 -3.3125,-12.125 1.44384,-0.78737 2.0419,-1.36057 2.0625,-2.34375 0.78273,-0.90919 1.28125,-1.94816 1.28125,-3 0,-1.0967 -1.73425,-5.42705 -3.84375,-9.59375 -2.1094,-4.1666 -4.4456,-9.1375 -5.1875,-11.0625 -0.742,-1.925 -2.38615,-5.05875 -3.65625,-6.96875 -1.2701,-1.91 -3.02325,-5.6543 -3.90625,-8.3125 -1.41999,-4.27514 -1.77708,-4.75885 -4.28125,-4.5625 -0.16623,-0.0517 -0.34215,-0.0761 -0.53125,-0.0937 0.59275,-1.29178 -0.60406,-6.86614 -0.34375,-13.59375 0.1488,-3.8463 -1.2563,-7.5637 -5.75,-15.0625 -1.6495,-2.7525 -1.7028,-3.4712 -0.5,-6.375 1.52883,-3.69094 3.19038,-5.33726 10.6875,-6 0.37332,-0.0127 0.78672,-0.0303 1.125,-0.0312 1.67006,-0.005 3.06042,-0.0682 4.21875,-0.21875 4.31959,-0.135 9.88833,-0.174 17.21875,-0.125 0.4434,0.003 0.81215,-0.002 1.25,0 2.15679,1.50668 2.30317,1.51101 4.96875,0.46875 0.43957,-0.17186 0.75241,-0.30174 0.96875,-0.4375 10.06248,-0.0189 17.5625,-0.22811 17.5625,-0.53125 0,-0.3731 -1.0158,-1.11335 -2.25,-1.65625 -2.1436,-0.94292 -2.99461,-2.83659 -2.34375,-4.46875 0.18617,0 0.51699,-0.52168 0.8125,-1.1875 0.006,-0.0129 0.0256,-0.0183 0.0312,-0.0312 0.12407,-0.1197 0.25978,-0.23276 0.40625,-0.34375 2.0665,-1.5659 7.34375,-1.94625 7.34375,-0.53125 0,0.5063 1.3486,1.1998 3,1.5625 2.1625,0.475 3.9472,0.0942 6.375,-1.40625 0.37154,-0.22962 0.70447,-0.44675 1.03125,-0.625 0.0212,-0.0116 0.0414,-0.0199 0.0625,-0.0312 1.68173,-0.49074 3.75535,-0.797 6,-0.875 0.76218,0.0742 1.60524,0.17304 2.625,0.3125 5.8917,0.8057 6.4421,0.685 8.0625,-1.375 1.3222,-1.6809 3.22655,-2.36115 7.84375,-2.84375 3.349,-0.35 6.8965,-1.07005 7.875,-1.59375 1.44353,-0.77255 8.14059,-1.29335 16.78125,-1.5625 21.73036,0.44002 50.2601,1.35619 73.90625,2.40625 0.57664,0.0272 1.38673,0.0682 1.9375,0.0937 22.4149,1.0408 40.4464,2.4158 53,4.0625 3.44513,0.45198 15.37196,1.55402 27.6875,2.5625 -1.15486,-3.89305 -2.43402,-7.75235 -3.65625,-11.625 -0.76611,-2.42743 -4.60916,-5.89086 -2.4375,-7.21875 6.82622,-4.17399 13.71501,-8.22266 20.65625,-12.1875 -0.46203,-3.28929 -0.53262,-6.666 -0.78125,-10.90625 -2.2e-4,-2.93121 0.10496,-5.78478 0.28125,-8.625 -4.75097,-2.81899 -6.63681,-5.50643 -2.125,-6.5 0.79504,-0.17508 1.672,-0.30438 2.59375,-0.40625 -1.1822,-4.11652 -2.19828,-8.31909 -3.03125,-13.40625 -0.33931,-2.07224 -0.53927,-3.61346 -0.6875,-4.96875 -3.8395,7.37997 -9.48158,16.4783 -18,27.625 -3.13765,4.10575 0.45649,-10.35012 0.0312,-15.5 -0.71159,-8.61878 -4.69657,-17.008 -7.46875,-25.09375 -0.3308,-1.31159 -0.6387,-2.58238 -0.96875,-3.875 -6.75733,-8.12298 -8.09093,-17.5585 -5.375,-26.25 -1.27086,-13.64563 1.20006,-26.76154 12.90625,-40.375 -0.8994,-8.39113 -1.27898,-12.14376 -1.40625,-14.6875 -3.97578,-6.05998 -5.27593,-10.41094 -5.96875,-22 -0.37664,-2.25088 -0.63132,-4.67918 -0.65625,-6.40625 -0.0785,-5.44065 0.087,-6.26526 0.71875,-9.84375 -0.30177,-0.844449 -0.58427,-1.684039 -0.875,-2.53125 -0.23418,-0.369781 -0.43944,-0.728806 -0.625,-1.125 -0.0671,-0.143174 -0.12096,-0.294078 -0.1875,-0.4375 -26.96135,-0.428204 -35.97108,-1.425063 -1.625,-3.65625 -0.21493,-0.500396 -0.44675,-0.997284 -0.65625,-1.5 -0.51225,-0.939403 -1.04967,-1.944346 -1.40625,-2.5625 -0.64711,-1.121782 -0.94976,-2.394065 -1.4375,-3.59375 -0.60644,-2.011855 -1.40647,-3.975985 -1.84375,-6.03125 -0.10835,-0.509277 -0.27128,-1.305908 -0.4375,-2.09375 -0.007,-0.0219 -0.0239,-0.0406 -0.0312,-0.0625 -0.0236,-0.02932 -0.0389,-0.0644 -0.0625,-0.09375 -0.32237,-0.401868 -0.54248,-0.904998 -0.8125,-1.34375 -3.63892,-8.165751 -4.73133,-9.179291 -5.46875,-16.28125 -0.94633,-2.501894 -1.38612,-5.597442 -3.59375,-14 0.0189,0.123612 -0.0794,-0.609446 -0.0937,-0.75 -0.8704,0.525027 -0.54433,-2.701136 -0.71875,-3.96875 -1.04361,-7.584358 -0.83864,-7.493987 -0.875,-14.375 0.47963,-2.569572 -0.0404,-5.330394 0.25,-7.9375 -0.14151,-4.716397 0.64974,-8.0480108 1.875,-12.53125 0.0459,-0.405106 0.12607,-0.8015571 0.15625,-1.0625 -0.13271,-3.555088 -0.13108,-7.097575 -0.0625,-10.65625 -0.0776,-3.109027 0.3459,-5.771271 0.90625,-8.59375 -5.33168,1.246287 -9.61129,1.832555 -9.5625,-0.90625 -1.78774,-0.07994 -3.4814,-0.24034 -6.03125,-0.46875 -1.82834,-0.05452 -2.61988,-0.08229 -3.84375,-0.09375 -0.0629,0.0048 -0.12457,0.02689 -0.1875,0.03125 -0.0745,0.0052 -0.0988,4.69e-4 -0.21875,0 -0.89717,0.03967 -1.79014,0.0574 -2.6875,0.09375 l -2.125,3 c -5.74368,0.189946 -11.50319,0.559993 -17.25,0.5625 -48.88061,0.02133 -97.62508,-4.023102 -146.5,-3.6875 -6.7716,0.03161 -13.54136,0.178524 -20.3125,0.09375 -2.96073,-0.03707 -5.9141,-0.488037 -8.875,-0.46875 -6.8147,0.04439 -13.6233,0.74974 -20.4375,0.65625 -5.96953,-0.0819 -11.95772,-1.726483 -17.8125,-2.78125 -3.28169,0.07203 -6.56351,0.152932 -9.84375,0.0625 -20.09608,-0.554022 -34.04263,-2.29824 -54.78125,-4.25 -6.94774,-1.125281 -13.84275,-2.833644 -20.875,-3.125 -3.16132,-0.130978 -6.33623,0.134355 -9.5,0.09375 -40.57751,-0.520779 13.1437,-0.0478 -19.4375,-0.6875 -12.73274,-0.281042 -15.61703,-0.387899 -19.09375,-0.40625 z M 583.0625,-19.125 c 0.0832,-0.0037 0.16678,-0.02746 0.25,-0.03125 -0.32966,-0.0026 -0.51918,2.32e-4 -0.96875,0 -0.24582,-1.27e-4 0.32407,0.02971 0.71875,0.03125 z m 19,20.6875 c 0.006,0.1552169 -0.006,0.3135176 0,0.46875 0.18856,-0.6870286 0.3893,-1.432042 0.59375,-2.1875 0.0403,-0.270159 0.0869,-0.541634 0.125,-0.8125 -0.5262,1.303414 -0.57049,1.249274 -0.71875,2.53125 z m 0.59375,-1.71875 c -0.1124,0.753571 -0.21886,1.5106727 -0.375,2.25 0.015,1.2019516 0.16769,2.399466 0.0312,3.59375 -0.0892,0.7811263 -0.14624,-1.5586312 -0.1875,-2.34375 -0.0229,-0.4356285 -0.0446,-0.8770214 -0.0625,-1.3125 -0.0567,0.2065997 -0.10119,0.3922941 -0.15625,0.59375 -0.12277,1.0827362 -0.28153,2.5875858 -0.65625,5.34375 0.0417,0.842148 0.11381,1.6891247 0.15625,2.53125 1.601,-5.3145666 3.18551,-10.639693 4.84375,-15.9375 0.12829,-2.639066 0.4852,-5.313164 1.125,-8.03125 -1.07615,1.552537 -2.07215,3.123125 -2.84375,4.84375 -1.06654,2.378337 -1.38363,5.018634 -1.75,7.625 0.0931,-0.231377 0.21647,-0.631809 0.34375,-0.96875 0.15966,-0.610835 0.33471,-1.178769 0.5,-1.84375 0.14465,-0.581938 0.93839,-2.225533 0.75,-1.65625 -0.55494,1.67694 -0.94881,2.702702 -1.25,3.5 -0.16297,0.623488 -0.31319,1.237681 -0.46875,1.8125 z m -224.5,408.0625 c -0.0272,-0.50687 -0.0713,-0.93767 -0.0937,-1.40625 -0.0104,-0.002 -0.0211,0.002 -0.0312,0 l 0.0625,3.46875 c -0.002,-0.74217 0.0283,-1.41421 0.0625,-2.0625 z M -29.40625,236.3125 c -0.0028,-1.14483 -0.0012,-2.35657 0,-3.5625 -0.961144,4.02011 -1.98931,4.98692 -0.21875,3.25 0.09271,0.13759 0.145763,0.20497 0.21875,0.3125 z m 0,-3.5625 c 0.02039,-0.0853 0.0422,-0.19321 0.0625,-0.28125 -0.0195,-0.27279 -0.04665,-0.5446 -0.0625,-0.84375 -8.38e-4,0.37638 3.77e-4,0.75449 0,1.125 z m 2.8125,-38.875 c 0.264017,-2.81714 0.536625,-5.61387 0.75,-8.4375 -2.906749,0.0351 -7.542266,0.89017 -14.03125,2.59375 -0.0043,0.15594 0.0043,0.31282 0,0.46875 -0.109309,3.9915 -0.241883,7.97705 -0.34375,11.96875 -0.0051,0.20173 -0.08238,0.40953 0,0.59375 0.408534,0.91368 0.953247,1.77772 1.4375,2.65625 0.0024,0.004 0.02883,-0.004 0.03125,0 5.100051,-3.77503 9.233355,-7.08848 12.15625,-9.84375 z M 353.5,-21.75 c -0.87789,0.0019 -1.74706,0.01787 -2.625,0.03125 0.10312,0.03371 0.20926,0.06064 0.3125,0.09375 0.73543,0.23586 3.08482,-0.126688 2.3125,-0.125 z M -9.34375,-4.84375 C -8.086614,-0.605315 -6.744484,3.6225071 -5.53125,7.875 -5.55202,7.5940425 -5.57714,7.3219641 -5.625,7.125 -6.29875,4.3522124 -7.50851,-0.226317 -8.75,-4.8125 -8.948093,-4.8207 -9.14566,-4.83545 -9.34375,-4.84375 z M 481.71875,68.125 c 0.55,0 1,0.45 1,1 0,0.55 -0.45,1 -1,1 -0.55,0 -1,-0.45 -1,-1 0,-0.55 0.45,-1 1,-1 z m -5.5,6 c 0.8333,0 1.5,0.8889 1.5,2 0,1.9922 -1.07595,2.61155 -2.34375,1.34375 -1.2179,-1.2179 -0.67865,-3.34375 0.84375,-3.34375 z M 631.375,75.96875 c -0.76201,0.559401 -7.46727,11.751681 -8.09375,13.125 -0.0423,0.09282 -0.084,0.187502 -0.125,0.28125 0.49946,-0.03024 0.89221,-0.06309 1.40625,-0.09375 5.38568,-9.898777 7.23863,-13.625326 6.8125,-13.3125 z m -18.65625,1.84375 c 0.01,0.05136 0.021,0.104994 0.0312,0.15625 0.13495,0.362099 0.325,0.881493 0.25,0.65625 -0.0908,-0.272549 -0.19008,-0.54009 -0.28125,-0.8125 z m -142.1875,2.3125 c 1.2462,0 3.1875,2.2465 3.1875,3.6875 0,0.715 -0.9,1.3125 -2,1.3125 -1.4667,0 -2,-0.6667 -2,-2.5 0,-1.375 0.3725,-2.5 0.8125,-2.5 z m -3.9375,8.34375 c 0.54996,-0.0586 1.16365,0.1462 2,0.59375 2.4975,1.3367 2.76545,3.61135 0.53125,4.46875 -4.20665,1.6141 -7.05026,-1.19975 -4.15625,-4.09375 0.6006,-0.6006 1.07503,-0.91015 1.625,-0.96875 z m 155.25,5 c -0.0852,0.392709 -0.15293,0.790008 -0.21875,1.1875 0.25896,-0.47068 0.40967,-0.738349 0.65625,-1.1875 -0.15682,-0.0021 -0.28172,0.0021 -0.4375,0 z m -161.25,0.96875 c 0.6786,0.0201 1.38362,0.69319 2.65625,2.25 2.5646,3.1373 2.90395,4.0851 1.71875,4.75 -1.7052,0.9564 -5.99105,1.6027 -6.59375,1 -1.2418,-1.2418 -0.65205,-6.0816 0.90625,-7.375 0.50025,-0.41516 0.90534,-0.637 1.3125,-0.625 z m 163.1875,4.90625 c -0.0864,0.185709 -0.35108,0.77345 -0.84375,2 0.007,0.16086 -0.006,0.27916 0,0.4375 0.35109,-1.06245 0.75451,-2.16498 0.84375,-2.4375 z m -168.75,5.78125 c 0.0103,0.002 0.0211,-0.002 0.0312,0 1.04186,0.16494 1.93748,0.88254 2.625,2.03125 0.0273,0.095 0.0684,0.18325 0.0937,0.28125 -0.0308,0.79176 -0.42678,1.67678 -1.25,2.5 -2.1344,2.1344 -3.8125,1.3329 -3.8125,-1.8125 0,-2.45094 0.3772,-2.969 2.3125,-3 z m -4.59375,10.125 c 0.60924,-0.0324 1.07677,-0.003 1.40625,0.0937 3e-5,0.0116 0,0.0195 0,0.0312 0,0.81244 -0.21191,1.72359 -0.53125,2.46875 -0.60068,0.55261 -1.34241,0.97665 -1.9375,1.09375 -1.36322,0.26825 -1.90236,-1.57088 -1.59375,-3.21875 0.48422,-0.18842 1.04927,-0.3133 1.6875,-0.375 0.35371,-0.0342 0.68667,-0.079 0.96875,-0.0937 z m 21.96875,0.90625 c 0.0634,0 0.124,0.0242 0.1875,0.0312 -0.11374,0.3318 -0.29391,0.61861 -0.53125,0.875 -0.12308,0.0472 -0.26634,0.0625 -0.40625,0.0625 -0.42375,0 -0.63585,-0.25221 -0.59375,-0.59375 0.43771,-0.2425 0.8972,-0.375 1.34375,-0.375 z m -494.1875,2.96875 c -5.612181,13.80437 -7.491271,19.9593 -8.34375,23.03125 1.68051,-4.19953 3.536698,-8.32391 5.375,-12.46875 0.924895,-2.6798 1.81247,-5.35561 2.75,-8.03125 0.08389,-0.94088 0.142283,-1.69019 0.21875,-2.53125 z M -24.75,129.6875 c -1.601656,4.64065 -3.291193,9.249 -5.4375,13.65625 -0.166251,0.34138 -0.36648,0.64688 -0.5625,0.96875 -0.195425,0.62233 -0.376616,1.05234 -0.71875,1.46875 -0.696598,1.89322 -1.385257,3.81643 -1.96875,5.75 -1.563948,5.1826 5.681339,-9.27371 7.8125,-14.25 1.585481,-3.70211 2.194378,-7.7471 3.28125,-11.625 0.0411,-0.41518 0.101121,-1.27116 0.15625,-1.875 -0.838533,1.97421 -1.692211,3.944 -2.5625,5.90625 z m -6,14.625 c 0.15387,-0.49 0.330445,-1.10936 0.59375,-2.0625 -0.363913,0.91103 -0.686533,1.83215 -1.03125,2.75 0.154048,-0.22258 0.296674,-0.45626 0.4375,-0.6875 z m 475.28125,-21.84375 c 0.4497,-0.0382 0.97822,0.0451 1.59375,0.28125 0.25447,0.0976 0.49629,0.24916 0.6875,0.40625 -0.002,0.72874 -0.26197,1.49164 -0.75,2.1875 -1.37737,1.26336 -2.34375,0.85213 -2.34375,-1.15625 0,-0.63395 0.13256,-1.18064 0.34375,-1.625 0.14423,-0.0517 0.30011,-0.0795 0.46875,-0.0937 z m 20.875,0.90625 c 0.26609,-0.007 0.54111,0.0329 0.78125,0.125 -0.0822,0.18807 -0.19036,0.39679 -0.3125,0.625 -0.0409,0.0765 -0.0814,0.14645 -0.125,0.21875 -0.29355,0.27912 -0.64073,0.48438 -0.96875,0.59375 -0.75,0.25 -1.125,-0.125 -0.875,-0.875 0.0349,-0.10487 0.10005,-0.20674 0.15625,-0.3125 0.44171,-0.22134 0.8986,-0.3635 1.34375,-0.375 z m -22.4375,4.9375 c 0.15075,0.086 0.29534,0.2117 0.40625,0.34375 -0.23234,0.40734 -0.4511,0.8123 -0.59375,1.1875 -0.19525,0.51352 -0.40527,0.94135 -0.625,1.28125 -0.64827,-0.0278 -1.19634,-0.46355 -1.375,-1.0625 0.22152,-0.14787 0.46688,-0.2851 0.75,-0.375 0.79188,-0.25136 1.26039,-0.65529 1.4375,-1.375 z m -7.4375,8.71875 c 0.79599,-0.10011 1.44419,0.45054 2.25,1.6875 0.19249,0.36759 0.33223,0.60766 0.5625,1.0625 0.32802,0.64795 0.62109,1.27052 0.90625,1.875 0.1749,0.78576 -0.0244,1.3765 -0.59375,2.0625 -0.29124,0.35094 -0.65499,0.67 -1.03125,0.90625 -0.7023,0.1301 -1.49832,0.2039 -2.34375,0.1875 -0.0103,-2e-4 -0.021,2.2e-4 -0.0312,0 -1.43129,-0.45278 -3.69909,-1.39818 -4.875,-2.03125 1.42609,-0.72429 2.34375,-1.94512 2.34375,-3.40625 0,-0.14366 0.0506,-0.29952 0.125,-0.5 0.004,-0.0105 -0.004,-0.0207 0,-0.0312 1.13321,-1.09259 1.98102,-1.7236 2.6875,-1.8125 z m 8.625,5.0625 c 0.58412,-0.0236 1.18606,0.1626 1.65625,0.46875 -0.0258,0.1956 -0.0624,0.37152 -0.125,0.53125 -0.12204,0.0252 -0.252,0.0312 -0.40625,0.0312 -0.8574,0 -1.5625,-0.45 -1.5625,-1 0.14269,-0.0292 0.29149,-0.0252 0.4375,-0.0312 z m -18.3125,1.34375 c 0.5478,0.0735 1.08037,0.0842 1.59375,0.0625 -0.20063,0.18568 -0.47545,0.36682 -0.78125,0.46875 -0.56595,0.18865 -0.86428,-0.0435 -0.8125,-0.53125 z m -4.9375,1.8125 c 0.5708,-0.0854 0.84375,0.28125 0.625,0.9375 -0.2406,0.7218 -1.0281,1.5093 -1.75,1.75 -0.75,0.25 -1.125,-0.125 -0.875,-0.875 0.2406,-0.7219 1.0281,-1.5094 1.75,-1.75 0.0937,-0.0312 0.16846,-0.0503 0.25,-0.0625 z M 414,145.3125 c 0.16846,-0.009 0.31119,0.0103 0.4375,0.0312 -0.0251,1.03119 0.30875,1.81121 0.90625,2.25 0.039,1.27592 0.61052,2.1383 1.625,2.34375 0.67607,0.13697 1.1251,0.0176 1.40625,-0.34375 0.6775,0.65631 0.95321,1.31606 0.90625,2.15625 -0.88659,2.59665 -1.02319,3.30139 0.21875,4.125 -0.25891,1.40739 0.31533,1.78079 2.25,2.78125 0.72939,0.37717 1.2714,0.6883 1.65625,1.03125 0.06,0.92688 -0.0618,2.20775 -0.25,4.1875 -0.625,6.5739 -5.5383,15.0137 -10.125,17.375 -1.4691,0.7563 -3.0149,1.93615 -3.4375,2.59375 -0.4226,0.6577 -4.3586,3.7178 -8.75,6.8125 -8.7835,6.1899 -10.0499,7.73605 -9.3125,11.59375 0.369,1.9301 -0.3017,3.5413 -2.625,6.1875 -3.42534,3.90127 -9.63654,7.85902 -12.71875,8.3125 -0.0102,-0.001 -0.0213,0.002 -0.0312,0 -0.084,-0.013 -0.17628,-0.0391 -0.25,-0.0625 -2.5427,-0.8071 -8.32695,-8.1481 -11.65625,-14.8125 -2.8639,-5.73293 -4.47582,-6.75067 -7.53125,-4.5625 -0.0497,0.0276 -0.0739,0.0652 -0.125,0.0937 -1.2301,0.6875 -2.3467,1.28175 -2.5,1.34375 -0.0707,0.0284 0.27063,0.81521 0.875,1.96875 -0.004,0.002 -0.029,0.0303 -0.0312,0.0312 -0.1534,0.0617 1.61285,3.36595 3.90625,7.34375 1.04214,1.80758 1.83332,3.19658 2.40625,4.34375 0.77768,2.24929 0.63814,4.15316 0.28125,8.78125 -0.7105,9.2135 -1.9599,11.72965 -12,24.03125 -6.4821,7.9423 -8.2211,9.3414 -16.75,13.4375 -1.59708,0.76698 -3.40302,1.1532 -5.375,1.1875 -3.58271,-0.12325 -7.72045,-1.3821 -12.28125,-3.78125 l -5.5625,-2.9375 -0.3125,0.3125 -0.53125,-0.28125 -2.6875,2.8125 c -1.4734,1.548 -4.79945,3.601 -7.40625,4.5625 -2.6069,0.9616 -4.9993,2.14965 -5.3125,2.65625 -0.39678,0.64201 -1.38027,0.9133 -2.6875,0.9375 -5.04413,-0.32125 -13.84893,-3.81768 -17.78125,-7.75 -1.7282,-1.7282 -3.99565,-3.4213 -5.03125,-3.75 -1.0356,-0.3287 -3.5771,-2.1936 -5.625,-4.125 -2.0479,-1.9314 -3.9251,-3.29365 -4.1875,-3.03125 -0.0606,0.0606 -0.0852,0.16391 -0.0937,0.28125 -0.37614,-0.22475 -0.66787,-0.36345 -0.75,-0.28125 -0.35539,0.35535 0.008,1.23879 0.78125,2.34375 -0.12149,1.3918 3.33971,5.39982 6.84375,7.71875 2.1729,1.4379 3.9375,3.02725 3.9375,3.53125 0,0.5039 0.96175,1.04295 2.15625,1.21875 0.6204,0.0913 1.13932,0.23897 1.53125,0.4375 -0.24234,0.73197 -0.88451,1.58851 -1.96875,2.53125 -0.80954,0.70389 -1.49749,1.51986 -1.96875,2.25 -1.56208,0.88035 -2.55624,0.57585 -3.125,-0.90625 -0.3166,-0.825 -1.7459,-1.5 -3.1875,-1.5 -1.4725,0 -3.36945,-0.9217 -4.34375,-2.125 -0.954,-1.178 -2.37205,-1.9185 -3.15625,-1.625 -0.28849,0.10793 -0.32172,0.38638 -0.15625,0.8125 -0.35598,0.0802 -0.43809,0.51172 0.0625,1.40625 0.085,0.15189 0.33031,0.42895 0.625,0.75 -0.15468,0.1888 -0.12966,0.57162 0.25,1.25 0.4496,0.8034 4.1119,4.2471 8.125,7.625 1.135,0.9554 2.13632,1.84468 3.0625,2.6875 -0.79687,1.47032 -7.86417,-1.95383 -12.1875,-6.03125 -2.0543,-1.9374 -3.9964,-3.10525 -4.3125,-2.59375 -0.74279,1.20179 -3.3767,-0.93442 -3.40625,-2.75 -1.7e-4,-0.0103 0,-0.0211 0,-0.0312 0.058,-0.10125 0.12022,-0.17352 0.1875,-0.28125 0.25349,-0.40595 0.59388,-0.80517 0.96875,-1.125 0.0242,-0.009 0.0406,-0.0186 0.0625,-0.0312 0.0225,-0.0187 0.0397,-0.0442 0.0625,-0.0625 0.64313,-0.51668 1.38462,-0.84375 1.96875,-0.84375 1.21051,0 1.73462,-0.40724 1.625,-1.5 0.88421,-0.0629 0.8402,-0.71535 0.4375,-2.84375 -0.3305,-1.7472 -1.01125,-3.74285 -1.53125,-4.40625 -0.5199,-0.6634 -0.7276,-1.56185 -0.4375,-2.03125 0.2901,-0.4693 -0.78855,-3.4803 -2.40625,-6.6875 -3.3325,-6.6068 -3.6099,-9.7136 -1.375,-15.0625 1.36776,-3.27338 1.83831,-3.62012 4.28125,-3.15625 0.13961,0.35649 0.48095,0.5444 0.9375,0.625 -0.35661,1.34591 0.0346,2.0625 1.25,2.0625 0.51021,0 1.551,-1.4625 2.3125,-3.25 0.7615,-1.7875 2.47285,-4.2473 3.78125,-5.4375 5.6492,-5.1389 23.05565,-15.7268 37.46875,-22.8125 8.5637,-4.21 15.349,-7.901 15.0625,-8.1875 -0.2865,-0.2865 -1.11965,-0.1396 -1.84375,0.3125 -0.7241,0.4521 -1.84025,0.87275 -2.46875,0.96875 -0.60646,0.0923 -2.07796,0.68258 -3.9375,1.46875 16.15823,-8.03631 31.96996,-14.82319 39.09375,-16.0625 0.24933,-0.0434 0.49857,-0.0787 0.75,-0.125 4.03063,0.0431 5.99729,0.15793 6.9375,0.625 0.0662,1.01683 0.51452,2.38736 1.125,3.40625 0.2733,0.92792 0.71586,1.86638 1.21875,2.53125 0.10785,0.1426 0.21749,0.28949 0.3125,0.4375 0.51834,1.97425 0.11423,4.01881 -1.21875,5.125 -1.62992,1.35276 -2.00491,4.75606 -0.625,4.96875 l 0,1.34375 0.125,-0.0937 c 0.14061,0.46894 0.42499,0.78125 0.875,0.78125 0.55,0 1,-0.7359 1,-1.625 0,-1.1847 0.6672,-1.4753 2.5,-1.125 1.375,0.2631 2.5,0.2324 2.5,-0.0625 0,-0.0968 -0.15613,-0.66226 -0.375,-1.375 0.59889,-0.24064 0.14855,-2.07695 -1.625,-8.84375 -1.01157,-3.85971 -1.79346,-7.07099 -1.90625,-7.78125 0.12773,-0.29824 0.2832,-0.57331 0.46875,-0.84375 0.83192,-0.56844 2.54413,-1.47548 4.5625,-2.34375 2.8239,-1.2148 7.2114,-4.11765 9.75,-6.46875 5.6324,-5.2165 6.252,-5.53615 18.125,-9.53125 6.80302,-2.28904 10.03383,-2.98579 13.53125,-2.78125 0.39595,0.28168 0.77129,0.60521 1.125,0.9375 1.9763,1.8567 2.7371,1.99945 5.5625,1.09375 l 3.28125,-1.0625 -3.34375,-0.0937 c -1.08849,-0.0333 -1.7803,-0.20616 -2.21875,-0.46875 0.30821,-0.0669 0.65446,-0.13591 1.03125,-0.25 1.10748,-0.0605 2.03676,-0.19654 2.53125,-0.40625 1.0713,-0.45426 1.46309,-0.66048 1.0625,-0.78125 l -0.0625,0 c -0.28656,-0.0668 -0.86349,-0.13365 -1.75,-0.15625 -1.08599,-0.0278 -1.89235,-0.2794 -2.34375,-0.6875 1.37263,-1.10679 3.98567,-2.27211 7.3125,-2.9375 0.64908,-0.1298 1.16689,-0.228 1.5625,-0.25 z M 630.65625,145.5 c -0.11146,0.20666 -0.25279,0.50443 -0.28125,0.6875 -0.0929,0.59771 -0.1849,1.17483 -0.25,1.71875 0.0349,-0.0371 0.09,-0.0567 0.125,-0.0937 0.15727,-0.71713 0.32109,-1.43616 0.46875,-2.15625 -0.0206,-0.0605 -0.0423,-0.0968 -0.0625,-0.15625 z m -205.5,0.9375 c 0.21907,-0.032 0.5657,0.22923 0.90625,0.65625 0.0191,0.0239 0.0122,0.0687 0.0312,0.0937 0.11338,0.27921 0.27845,0.58274 0.5,0.9375 0.0872,0.13957 0.14972,0.26679 0.21875,0.40625 0.0301,0.29091 0.15753,0.60727 0.34375,0.96875 0.0266,0.14239 0.0626,0.2824 0.0625,0.40625 -0.0761,0.15215 -0.25236,0.21875 -0.5,0.21875 -1.2123,0 -2.54305,-2.8007 -1.71875,-3.625 0.0373,-0.0373 0.10609,-0.0555 0.15625,-0.0625 z m 51.40625,2.9375 c -0.0226,0.0719 -0.0354,0.14805 -0.0625,0.21875 -0.29765,0.77557 -0.7866,1.26266 -1.3125,1.4375 -0.16091,-0.0572 -0.32242,-0.15961 -0.46875,-0.28125 0.4833,-0.6272 1.23261,-1.18678 1.84375,-1.375 z m -19.875,2 c 1.30432,0.12964 2.88684,0.36628 4.40625,0.71875 2.21939,0.5147 4.85195,0.52725 6.15625,0.0312 1.22118,-0.46426 1.9638,-0.49657 2.4375,-0.0625 0.38338,1.50072 0.21317,2.44261 -0.5,2.6875 -0.11069,-0.0223 -0.22265,-0.0555 -0.34375,-0.0937 -0.40114,-0.1273 -0.82631,-0.1302 -1.25,-0.0625 -0.9815,-0.14071 -2.08052,0.26212 -2.71875,1.03125 -0.48566,0.58518 -1.62367,1.05646 -2.96875,1.3125 -0.44155,0.0247 -0.91781,0.019 -1.40625,0 -2.67398,-0.10483 -4.11009,0.32787 -4.8125,1.375 -0.0374,0.0557 -0.0918,0.097 -0.125,0.15625 -0.11672,0.20857 -0.21396,0.39702 -0.34375,0.5625 -0.0769,0.0847 -0.14976,0.1749 -0.25,0.25 -0.48372,0.36244 -1.21654,0.58913 -2.03125,0.71875 -0.56239,-0.0458 -1.21377,-0.22661 -1.96875,-0.53125 -0.37143,-0.14988 -0.64328,-0.40043 -0.84375,-0.6875 1.37191,-1.68334 3.70993,-3.617 4.84375,-3.625 0.87735,-0.006 0.90705,-1.36799 0.40625,-2.375 0.48083,-0.56054 0.91554,-1.05234 1.3125,-1.40625 z m -17.59375,7.34375 c 0.79675,-0.0337 1.77478,0.19597 3.21875,0.5625 1.11341,0.28263 1.89395,0.48501 2.46875,0.71875 0.0704,0.31285 0.1598,0.7613 0.25,1.1875 -0.0374,0.25123 -0.046,0.48491 -0.0937,0.78125 -0.33788,2.09102 -0.83837,3.17744 -1.71875,3.625 -0.49509,0.003 -1.0708,-0.0679 -1.75,-0.21875 -1.0791,-0.2397 -1.75,-1.3162 -1.75,-2.8125 0,-2.31003 -1.45714,-3.00461 -3.15625,-1.75 -0.006,0.005 -0.0251,-0.005 -0.0312,0 -0.0822,0.0348 -0.32514,-0.10762 -0.625,-0.3125 1.28835,-1.19546 2.10214,-1.7354 3.1875,-1.78125 z m -67.15625,1.96875 c -0.0357,-0.007 -0.0825,0.005 -0.15625,0.0312 -0.19669,0.0703 -0.53702,0.27332 -1,0.5625 -1.3347,0.8336 -3.0801,2.4903 -3.875,3.6875 -2.1503,3.2386 -1.0057,2.6581 2.875,-1.5 1.72587,-1.84925 2.40636,-2.73144 2.15625,-2.78125 z m 22.34375,1.28125 -2,2.375 c -0.0428,0.0501 -0.0883,0.10155 -0.125,0.15625 l -0.6875,0.8125 c -0.93949,1.11016 -1.57125,2.26127 -1.96875,3.40625 -1.74527,1.46611 -1.72348,4.10027 -0.21875,6.6875 0.4862,1.7589 1.70037,3.62554 3.59375,5.21875 3.4872,2.9342 8.2987,3.3196 11,0.875 1.37781,-1.2472 1.98296,-4.08622 1.78125,-6.8125 0.0179,-0.2482 0.0625,-0.48926 0.0625,-0.75 0,-5.1398 -2.22495,-8.2894 -7.28125,-10.3125 l -4.15625,-1.65625 z m 0.28125,7.4375 c 0.45218,-0.0591 0.91066,0.11274 1.28125,0.40625 -0.0542,0.70002 -0.5744,1.12565 -1.21875,1.25 -0.48681,-0.10275 -0.96904,-0.37949 -1.3125,-0.8125 0.0682,-0.1049 0.13008,-0.2238 0.21875,-0.3125 0.3154,-0.3154 0.67211,-0.48425 1.03125,-0.53125 z m -47.96875,7.71875 c -0.97292,0 -1.01638,0.84132 -0.25,3.3125 -0.0609,-0.0104 -0.10865,0.0149 -0.15625,0.0625 -0.275,0.275 -0.21915,1.47335 0.15625,2.65625 0.21265,0.66987 0.4808,1.15481 0.71875,1.4375 0.0453,0.18818 0.0955,0.37115 0.15625,0.5625 0.3754,1.1829 0.9125,1.93125 1.1875,1.65625 0.22589,-0.22589 0.18932,-1.08098 -0.0312,-2.03125 0.008,-0.005 0.024,0.007 0.0312,0 0.7634,-0.7634 -0.8704,-7.65625 -1.8125,-7.65625 z M -49.875,190.875 c -1.145696,0.35102 -2.244131,0.67475 -3.46875,1.0625 -5.862621,1.85627 -11.806911,3.51881 -17.8125,5.0625 l 0,28.96875 c 8.816192,-5.79474 17.048156,-11.32596 24.15625,-16.3125 -0.24163,-0.63147 -0.522526,-1.30268 -0.875,-2.0625 -3.243571,-5.29199 -2.32435,-10.45786 -2,-16.71875 z m 705.90625,18.53125 c -0.20612,0.57897 -0.38283,1.21125 -0.59375,1.9375 0.008,0.0597 0.0237,0.12739 0.0312,0.1875 0.18207,0.41644 0.40416,0.79398 0.65625,1.125 -0.0179,-1.08893 -0.072,-2.17354 -0.0937,-3.25 z M 233,225.59375 c 4.38182,0.048 8.1292,0.3125 9.0625,0.78125 1.7003,0.854 1.701,1.04635 0.1875,2.71875 -1.1239,1.2419 -1.4067,2.6305 -0.9375,4.5 l 0.65625,2.71875 -4.09375,-2.59375 c -4.9415,-3.1194 -5.15625,-3.14145 -5.15625,-0.59375 0,1.299 0.67075,2 1.90625,2 2.3701,0 4.16,4.6142 3,7.75 -0.4874,1.3176 -1.6821,2.25 -2.875,2.25 -2.6881,0 -2.6301,2.51595 0.0625,2.71875 0.41359,0.0311 0.94726,0.21235 1.53125,0.40625 l -2.125,0.0625 2.59375,1.15625 c 1.4324,0.6429 3.36945,1.802 4.28125,2.5625 -0.21034,0.20424 -0.50729,0.42704 -0.90625,0.71875 -1.0255,0.7499 -2.63465,1.375 -3.59375,1.375 -0.17114,0 -0.39773,0.0346 -0.625,0.0625 -0.0826,0.005 -0.1673,0.0242 -0.25,0.0312 -3.51225,0.28046 -7.06476,1.79027 -6.375,2.90625 0.22854,0.36983 0.80594,0.70146 1.4375,0.875 -0.5161,0.39649 -0.78432,0.79731 -0.5625,1.15625 0.3406,0.551 1.4126,1 2.375,1 0.92197,0 2.46284,0.62887 3.53125,1.40625 -0.0569,0.25308 -0.17217,0.52675 -0.34375,0.78125 -0.13672,0.10794 -0.20991,0.18493 -0.375,0.3125 -0.88591,0.68472 -1.99075,1.1186 -3.25,1.3125 -2.67347,0.0388 -6.3038,-1.04588 -8,-2.65625 -1.5764,-1.49669 -1.89507,-1.62923 -3.75,0.40625 -0.64827,0.18322 -1.2663,0.69898 -2.21875,1.59375 -1.2837,1.2059 -2.34375,2.75895 -2.34375,3.46875 0,1.54884 -2.56943,3.01414 -6.1875,3.625 -0.33872,0.0428 -0.67813,0.0951 -1.03125,0.125 -0.19142,0.0226 -0.36665,0.0446 -0.5625,0.0625 -2.0373,0.1864 -4.0911,0.3815 -4.5625,0.4375 -0.4713,0.0558 -0.59115,0.78645 -0.28125,1.59375 0.004,0.0103 -0.004,0.0211 0,0.0312 -0.54856,0.32395 -1.34084,0.35141 -2.09375,0.0625 -0.43827,-0.16818 -0.86758,-0.17729 -1.3125,-0.0625 -1.03669,-0.92588 -2.08297,-0.29047 -2.90625,1.875 -0.29861,0.78677 -1.05705,1.48989 -2.03125,2.0625 -0.07,-0.1423 -0.118,-0.39176 -0.125,-0.71875 -0.0198,-0.9625 -0.7411,-1.75 -1.625,-1.75 -0.17247,0 -0.30205,0.0329 -0.4375,0.0625 -0.10918,-0.0177 -0.21514,-0.0312 -0.34375,-0.0312 -0.8899,0 -1.3399,0.45 -1,1 0.28325,0.45833 0.64138,0.8206 0.875,0.9375 0.0188,0.16255 -0.004,0.31861 -0.0312,0.46875 -0.007,0.0121 -0.0252,0.0188 -0.0312,0.0312 -0.0337,0.0705 -0.0665,0.13715 -0.0625,0.21875 -0.16663,0.4462 -0.53409,0.81653 -1.09375,1.03125 -0.0845,0.0324 -0.1661,0.0711 -0.25,0.0937 -0.35555,0.0362 -0.70189,0.0437 -1.03125,0.0312 -0.37263,-0.0956 -0.6724,-0.32965 -0.78125,-0.65625 -0.32824,-0.9846 -2.05619,-1.29287 -3.4375,-1.0625 -1.33824,-0.21506 -2.65625,0.22158 -2.65625,1.28125 0,1.07823 -0.74713,1.76701 -1.65625,1.9375 -0.55404,-0.10033 -1.10452,-0.39206 -1.53125,-0.90625 -1.01242,-1.21975 -1.8131,-1.59324 -2.28125,-1.21875 -0.9163,-0.42193 -1.43768,0.26136 -1.25,2.03125 0.16935,1.59758 -0.33708,2.33174 -1.8125,2.5625 -0.96177,-0.17596 -1.54825,-1.07117 -2.125,-3.03125 -0.0861,-0.29269 -0.18575,-0.55934 -0.28125,-0.8125 -0.004,-0.01 0.004,-0.0213 0,-0.0312 -0.0423,-1.2889 0.49296,-1.35159 2.03125,-1.15625 1.1502,0.146 2.84555,-0.43445 3.78125,-1.28125 0.9357,-0.8468 2.371,-1.28205 3.1875,-0.96875 0.8164,0.3133 2.03905,-0.0872 2.71875,-0.90625 1.0182,-1.2268 0.91035,-1.49275 -0.59375,-1.46875 -0.0179,2.9e-4 -0.0441,-10e-5 -0.0625,0 0.26583,-0.16747 0.51802,-0.35188 0.71875,-0.59375 1.0791,-1.3002 0.98145,-1.5505 -0.59375,-1.5625 -1.0299,-0.007 -2.8623,-0.3031 -4.0625,-0.625 -0.91735,-0.246 -1.42165,-0.28623 -1.65625,-0.0625 -0.94144,-0.12813 -1.15075,0.3532 -1.09375,1.84375 0.0284,0.74442 -0.12638,1.38202 -0.4375,1.84375 -0.004,0.005 -0.0274,-0.005 -0.0312,0 -1.36356,-0.0106 -2.09375,-0.65335 -2.09375,-1.84375 0,-2.03723 -0.46042,-2.74481 -2.09375,-2.5 -0.59027,-0.0666 -1.43945,0.16574 -2.65625,0.625 -0.80823,0.30508 -1.36104,0.54717 -1.71875,0.75 l -0.65625,0.21875 0.1875,0.1875 c -0.0913,0.35174 0.37051,0.83648 1.21875,1.6875 -0.71276,0.46399 -0.31106,0.87644 1.03125,2.21875 0.15185,0.15185 0.2493,0.27546 0.375,0.40625 -0.11484,0.14037 -0.25681,0.26823 -0.46875,0.4375 -0.0327,-0.006 -0.0607,-0.0263 -0.0937,-0.0312 -1.3049,-0.1847 -2.56745,-1.1936 -2.84375,-2.25 -0.3854,-1.47374 -1.00183,-2.04737 -1.78125,-1.78125 -0.005,-0.004 -0.0264,0.004 -0.0312,0 -0.38229,-0.30024 -0.95476,-0.13894 -1.6875,0.59375 -0.83592,0.83602 -3.1199,1.38329 -7.09375,1.71875 0.21009,-0.17052 0.3125,-0.43916 0.3125,-0.8125 0,-0.40995 -0.16825,-0.81467 -0.40625,-1.15625 0.27053,-0.17406 0.40625,-0.46834 0.40625,-0.9375 0,-0.8355 -0.45,-1.53125 -1,-1.53125 -0.91345,0 -1.12645,-1.5238 -0.84375,-3.09375 0.60255,-0.37811 1.15612,-0.79345 1.6875,-1.21875 0.743,-0.5946 3.668,-1.2351 6.5,-1.4375 1.99241,-0.1424 3.68587,-0.54089 4.96875,-1 0.30456,0.14714 0.57325,0.32055 0.78125,0.5 -0.563,0.74187 -0.85536,1.5813 -0.5,2.15625 0.18625,0.3014 0.48094,0.5826 0.84375,0.78125 -0.18026,0.46206 -0.21408,0.9036 0,1.25 0.3725,0.6027 1.2716,1.09375 2,1.09375 0.89771,0 1.61913,-1.14571 1.875,-2.3125 0.4345,-0.1703 0.6825,-0.48893 0.6875,-0.90625 0.008,-0.7258 0.44895,-1.9902 0.96875,-2.8125 0.78498,-1.24169 1.15552,-1.18141 2.3125,0.375 0.0731,0.33378 0.21374,0.54335 0.375,0.46875 0.1357,0.17311 0.27624,0.36994 0.40625,0.5 -0.002,0.0369 0.002,0.0548 0,0.0937 -0.0434,1.0542 0.19895,1.6448 0.53125,1.3125 0.17594,-0.17589 0.27525,-0.5015 0.28125,-0.875 0.73198,0.26162 1.01587,-0.5843 0.53125,-2.4375 -0.4246,-1.624 -1.20525,-1.9243 -4.34375,-1.625 -3.7159,0.3544 -3.8116,0.29545 -3.3125,-2.46875 0.13724,-0.76008 0.30559,-1.41656 0.5,-2 0.22883,-0.0819 0.48215,-0.16914 0.75,-0.3125 1.0305,-0.5515 2.6888,-1.02125 3.6875,-1.03125 0.17342,-0.001 0.355,-0.0121 0.53125,-0.0312 0.26392,1.50449 2.76164,5.03125 3.8125,5.03125 0.5373,0 0.96875,0.97095 0.96875,2.15625 0,2.1274 0.0158,2.1305 2.09375,0.25 0.80473,-0.72827 2.5637,-1.70375 4.4375,-2.5 0.73058,0.0712 1.23702,-0.0859 1.40625,-0.53125 0.35503,-0.12937 0.71809,-0.26715 1.0625,-0.375 0.56034,-0.17549 1.0877,-0.36829 1.59375,-0.5625 0.36209,0.0397 0.7271,0.0799 1.15625,0.15625 2.4856,0.4419 3.4128,0.3461 2.75,-0.3125 -0.25002,-0.24842 -0.96767,-0.51585 -1.84375,-0.75 0.75639,-0.40497 1.24625,-0.7815 1.28125,-1.03125 0.11544,-0.82954 -3.45282,-1.55062 -6.84375,-1.8125 -0.23458,-0.0281 -0.45455,-0.038 -0.6875,-0.0625 -0.0932,-0.005 -0.18885,-0.0264 -0.28125,-0.0312 -2.58177,-0.25575 -4.9508,-0.29916 -5.375,0.125 -0.16876,0.16876 -0.0922,0.4427 0.125,0.75 -0.77199,0.35333 -1.68983,0.18236 -2.90625,-0.46875 -0.35606,-0.19051 -0.69511,-0.34969 -1.03125,-0.46875 1.4136,-0.55636 2.41671,-1.45829 1.84375,-2.03125 -0.21697,-0.21697 -1.06053,-0.19807 -2.15625,0 1.8843,-0.82777 3.47868,-2.49202 2.875,-3.46875 -0.90888,-1.47064 2.29104,-1.9725 3.65625,-0.78125 -0.0157,0.0884 -0.0312,0.18835 -0.0312,0.28125 0,1.24595 0.10484,1.58795 1.0625,1.34375 -0.1079,0.19996 -0.1875,0.41384 -0.1875,0.65625 0,1.6823 0.17745,1.7303 2.40625,0.875 1.4695,-0.56393 1.30562,-1.73523 0.0937,-2.1875 0.46815,-0.16412 0.97534,-0.34051 1.65625,-0.625 1.985,-0.8294 3.87045,-2.24885 4.21875,-3.15625 0.5109,-1.3314 0.9343,-1.4256 2.125,-0.4375 0.27427,0.22761 0.61474,0.38597 0.96875,0.5 -0.0149,0.30297 0.19084,0.53125 0.5625,0.53125 0.28676,0 0.60293,-0.14871 0.90625,-0.34375 1.12485,-0.0656 2.07244,-0.58409 1.9375,-1.40625 -0.3458,-2.1061 0.3065,-3.1956 2.25,-3.8125 1.5267,-0.4845 1.7774,-0.91115 0.875,-1.46875 -0.7174,-0.4434 -0.91315,-1.31215 -0.46875,-2.03125 0.5996,-0.9702 1.0516,-0.89075 2,0.40625 0.6792,0.929 1.8382,1.56435 2.5625,1.40625 0.7243,-0.1581 1.406,0.28125 1.5,0.96875 0.0937,0.6875 0.21225,1.5666 0.28125,1.9375 0.0864,0.46585 0.97845,-0.16748 2.03125,-1.15625 0.005,-0.005 0.0264,0.005 0.0312,0 0.0555,-0.0163 0.10395,-0.0302 0.15625,-0.0625 0.43502,-0.26889 0.69989,-0.60351 0.8125,-0.9375 1.19869,-1.28565 2.37002,-2.78566 2.65625,-3.6875 0.8071,-2.5429 3.31355,-2.31215 4.40625,0.40625 0.7734,1.9242 0.91475,1.9912 0.96875,0.375 0.0349,-1.0393 0.8509,-2.4844 1.8125,-3.1875 3.0026,-2.1956 0.45325,-2.86885 -6.03125,-1.59375 -3.4263,0.6737 -7.73115,1.4895 -9.59375,1.8125 -5.084,0.8819 -3.0744,-1.19645 3.125,-3.21875 0.76848,-0.25068 1.54588,-0.53694 2.28125,-0.8125 1.72626,-0.41407 3.49568,-0.77779 5.15625,-1.0625 4.06173,-0.6965 8.355,-1.46205 11.65625,-2.0625 1.67302,-0.0322 3.335,-0.0488 4.9375,-0.0312 z m -37.03125,9.59375 c 1.8985,-0.0717 2.3633,1.4404 0.75,2.4375 -0.55,0.3399 -1,1.495 -1,2.5625 0,1.3032 -0.68805,1.9375 -2.09375,1.9375 -1.2526,0 -2.3121,0.8034 -2.625,2 -0.2877,1.1 -1.03295,2.01 -1.65625,2 -1.3541,-0.0206 -5.38,-4.1445 -5.8125,-5.9375 -0.2977,-1.2346 8.7172,-4.8593 12.4375,-5 z m 32.84375,0.25 c -0.66216,-0.003 -1.59045,0.37655 -2.625,1.1875 -1.8841,1.4769 -1.8614,1.54335 0.8125,1.28125 1.5296,-0.15 2.7885,-0.7137 2.8125,-1.25 0.0367,-0.8154 -0.33784,-1.21575 -1,-1.21875 z m 14.34375,8.125 c 0.066,0.009 0.14074,0.11911 0.21875,0.3125 0.2774,0.6875 0.2774,1.8125 0,2.5 -0.2774,0.6875 -0.5,0.125 -0.5,-1.25 0,-0.85938 0.0845,-1.41345 0.21875,-1.53125 0.0201,-0.0177 0.0405,-0.0342 0.0625,-0.0312 z m 419.71875,1.28125 c 0.93236,1.82352 1.96204,3.58021 3.1875,5.21875 0.58147,0.77748 1.54547,1.79913 2.625,2.84375 1.197,0.12144 2.47237,0.26745 3.71875,0.40625 -3.11788,-2.86586 -6.58065,-5.44137 -9.53125,-8.46875 z m -464.03125,0.3125 c -0.55,0 -1.2851,0.45 -1.625,1 -0.3399,0.55 -0.175,1 0.375,1 0.55,0 1.2851,-0.45 1.625,-1 0.3399,-0.55 0.175,-1 -0.375,-1 z M 160.75,246.5625 c 0.58842,0.019 0.96875,0.16634 0.96875,0.4375 0,0.5009 -1.2406,1.21485 -2.75,1.59375 -1.5094,0.3788 -3.38265,1.2317 -4.15625,1.875 -0.46437,0.38615 -2.42066,1.23227 -4.9375,2.1875 -0.009,0.003 -0.0223,-0.003 -0.0312,0 -0.52843,-0.32657 -0.9666,-0.15549 -1,0.375 -1.42022,0.52331 -2.9344,1.06726 -4.53125,1.59375 -2.00291,0.66036 -3.55241,1.19737 -4.78125,1.65625 -0.48581,-0.10743 -1.04151,-0.10004 -1.6875,0.0625 1.79345,-0.96999 3.87566,-2.0222 6.40625,-3.1875 3.14713,-1.44922 6.25719,-2.92045 8.75,-4.125 1.02765,-0.31141 1.89431,-0.63279 2.21875,-0.875 1.05781,-0.78981 3.3178,-1.43769 4.875,-1.5625 0.23358,-0.0187 0.46011,-0.0377 0.65625,-0.0312 z m 16.09375,0.5625 c 0.55,0 0.7149,0.45 0.375,1 -0.3399,0.55 -1.075,1 -1.625,1 -0.55,0 -0.7149,-0.45 -0.375,-1 0.3399,-0.55 1.075,-1 1.625,-1 z m -18.53125,5 c 0.7662,0 1.40625,0.675 1.40625,1.5 0,0.8253 -0.88555,1.5 -1.96875,1.5 -1.33895,0 -1.79775,-0.4797 -1.40625,-1.5 0.3166,-0.825 1.20255,-1.5 1.96875,-1.5 z m 16.96875,0 c -0.0836,0.0257 -0.1661,0.0354 -0.25,0.0625 -1.02664,0.33092 -1.58306,0.4981 -2.5,0.78125 0.71018,-0.56918 1.61503,-0.84375 2.75,-0.84375 z m -7.46875,2.5 c 0.59589,-0.0544 1.14908,0.13144 1.40625,0.5 0.005,0.008 -0.005,0.0232 0,0.0312 0.015,0.0234 0.0465,0.0408 0.0625,0.0625 0.24195,0.49875 -0.41024,0.90625 -1.5,0.90625 -2.4145,0 -2.66085,-0.55045 -0.59375,-1.34375 0.20185,-0.0774 0.41952,-0.13745 0.625,-0.15625 z m -33.125,3.5625 c -0.80576,1.1717 -1.01036,2.88888 -0.53125,4.28125 -0.81085,1.10876 -2.41474,2.07897 -5.59375,3.65625 -0.91751,0.45522 -1.64877,0.84856 -2.34375,1.1875 -0.16126,0.0786 -0.34978,0.1774 -0.5,0.25 -0.41963,0.19893 -0.85767,0.40067 -1.25,0.5625 -1.01807,0.41992 -1.87093,0.68435 -2.46875,0.78125 0.48684,-1.05711 1.63396,-2.14436 3.0625,-2.6875 1.3144,-0.4997 3.7052,-2.51895 5.3125,-4.46875 0.9575,-1.16164 2.36008,-2.30744 4.3125,-3.5625 z m 22.9375,1.0625 c 0.32696,0.0135 0.61044,0.10093 0.78125,0.25 -0.19735,0.0368 -0.3991,0.0928 -0.59375,0.125 -0.4843,0.08 -1.0128,0.19557 -1.53125,0.3125 -0.29753,-0.11518 -0.25657,-0.2973 0.25,-0.5 0.36095,-0.1444 0.74635,-0.2018 1.09375,-0.1875 z m -8.25,1.625 c 0.405,-0.0358 0.71131,0.0238 0.8125,0.1875 0.2002,0.32387 0.23938,0.68925 0.125,0.96875 -0.69635,0.36148 -1.50043,0.72112 -2.34375,1.09375 -1.90185,0.51895 -4.25,0.88234 -4.25,0.53125 0,-0.8866 3.90125,-2.62621 5.65625,-2.78125 z m 52.90625,2.25 c -1.81463,0 -5.02596,2.53532 -5.875,4.1875 -0.74295,0.34494 -1.14757,0.66749 -1,0.90625 0.17757,0.28731 0.65332,0.421 1.3125,0.4375 0.12582,0.003 0.23329,0.0383 0.375,0.0312 1.34012,0.14231 4.12431,-0.48496 7.46875,-1.71875 1.9472,-0.7184 2.17255,-1.11915 1.15625,-2.34375 -0.6772,-0.8159 -2.2257,-1.5 -3.4375,-1.5 z m -92.25,0.9375 c 1.26071,1.31927 -0.69913,2.92429 -9.5,7.8125 -6.5802,3.6547 -6.4664,3.619 -7.3125,2.25 -0.0922,-0.14921 -0.16645,-0.29526 -0.21875,-0.4375 1.01789,-1.15193 2.29018,-2.23733 3.71875,-3.0625 4.86865,-2.81226 9.45876,-5.03935 13.3125,-6.5625 z m 24.90625,3.125 c 0.12955,0.004 0.2355,0.048 0.3125,0.125 0.3079,0.3079 -0.2637,0.8745 -1.25,1.25 -1.4252,0.5427 -1.5427,0.4251 -0.5625,-0.5625 0.5088,-0.51255 1.11136,-0.8239 1.5,-0.8125 z m 55.625,0.1875 c -0.21831,0.0312 -0.4378,0.13797 -0.65625,0.28125 -0.16807,0.0103 -0.35915,0.047 -0.5625,0.125 -0.825,0.3166 -1.5,0.97755 -1.5,1.46875 0,0.4911 0.675,0.90625 1.5,0.90625 0.0827,0 0.1708,-0.0186 0.25,-0.0312 -0.51401,0.33702 -0.875,0.76676 -0.875,1.125 0,0.4912 0.675,0.90625 1.5,0.90625 0.825,0 1.5,-0.66105 1.5,-1.46875 0,-0.50968 -0.1974,-0.84198 -0.53125,-0.96875 0.3264,-0.29057 0.53125,-0.71875 0.53125,-1.1875 0,-0.88295 -0.54081,-1.24415 -1.15625,-1.15625 z m 14.9375,0.1875 c -0.99025,0.013 -2.60421,0.21619 -4.65625,0.65625 -2.834,0.6078 -4.875,1.52565 -4.5625,2.03125 0.5639,0.9125 3.7263,0.41135 8.3125,-1.28125 2.49619,-0.92119 2.55666,-1.42795 0.90625,-1.40625 z m -42.96875,1.59375 c -1.8576,0.0123 -2.0193,0.18885 -0.8125,0.96875 1.8608,1.2025 1.7568,1.2025 2.5,0 0.3446,-0.5577 -0.3999,-0.97875 -1.6875,-0.96875 z m -32,0.5 c 0.11518,0.20147 0.1152,0.51138 0,0.8125 -0.60748,0.2436 -1.06044,0.51317 -1.1875,0.71875 -0.12137,0.19636 -0.44364,0.28905 -0.84375,0.34375 -0.0568,-0.0632 -0.1347,-0.1646 -0.1875,-0.25 -0.1651,-0.26717 -0.1671,-0.53902 -0.0937,-0.8125 0.36049,-0.17909 0.71353,-0.3125 1,-0.3125 0.36347,0 0.83572,-0.20236 1.3125,-0.5 z M 303.1875,273.25 c 0.12415,-0.008 0.23927,-0.002 0.34375,0 -0.3977,0.84185 -1.42621,1.56158 -2.53125,1.71875 -0.01,-0.003 -0.0213,0.003 -0.0312,0 -0.24825,-0.0676 -0.49882,-0.15823 -0.6875,-0.28125 0.48925,-0.67473 1.34419,-1.24172 2.28125,-1.375 0.22536,-0.032 0.44076,-0.05 0.625,-0.0625 z M 152.375,273.5 c 0.3361,-0.01 0.6926,0.0256 1.09375,0.125 0.1944,0.0482 0.33913,0.0716 0.5,0.0937 -1.21956,0.0957 -2.14731,0.1505 -2.71875,0.0937 0.34257,-0.19104 0.70956,-0.3002 1.125,-0.3125 z m 24.71875,0.53125 c -0.15311,1.02932 -0.7343,1.72579 -1.625,1.90625 -0.98655,0.19983 -1.47736,-0.0858 -1.65625,-1.03125 0.26166,-0.0234 0.53778,-0.0863 0.8125,-0.15625 0.02,-0.005 0.0424,0.005 0.0625,0 0.88217,-0.0686 1.70359,-0.31539 2.40625,-0.71875 z m -17,0.28125 c 0.32185,0.10501 0.64101,0.27105 0.96875,0.53125 -0.65012,0.17453 -1.39776,0.34329 -2.3125,0.46875 0.11026,-0.66542 0.67282,-0.9833 1.34375,-1 z m 161.4375,1.28125 c 0.27457,3e-4 0.5059,0.0244 0.71875,0.0625 -0.33955,0.66828 -0.93724,1.48993 -1.875,2.46875 -1.92603,2.01036 -4.5855,3.0844 -6.84375,3.0625 -1.46596,-0.18759 -2.58457,-0.97298 -2.78125,-2.34375 0.91954,-0.73863 2.72774,-1.43896 5.625,-2.28125 2.25647,-0.65597 3.97487,-0.96975 5.15625,-0.96875 z M 114.6875,276.125 c 0.51251,-0.0197 0.9022,0.0191 1.1875,0.0625 -0.0874,0.21745 -0.13435,0.46791 -0.15625,0.71875 -0.2848,3.27179 -0.4259,3.7453 -1.25,5.0625 -0.89382,1.42859 -0.45115,2.1263 0.875,1.96875 -0.004,0.008 0.006,0.0222 0,0.0312 -1.2512,1.9998 0.0684,2.6395 2.84375,1.375 1.02069,-0.465 1.66777,-1.01213 1.90625,-1.59375 0.59658,-0.14289 1.13663,-0.30922 1.4375,-0.5 0.723,-0.459 2.41588,-0.59875 3.75,-0.34375 1.0233,0.19565 1.61709,0.43872 1.875,0.875 -0.0884,0.0551 -0.19505,0.10085 -0.28125,0.15625 -0.2567,0.1651 -0.5025,1.7401 -0.5625,3.5 -0.13982,4.09819 -0.19767,6.59322 -0.46875,8.28125 -0.50355,1.2429 -1.53613,2.11794 -3.6875,3.5625 -5.5163,3.7042 -8.72865,4.39635 -10.78125,2.34375 -0.9041,-0.9041 -1.65625,-2.48425 -1.65625,-3.53125 0,-1.18628 -0.27445,-1.60295 -1.46875,-1.53125 -0.2897,-0.15773 -1.0085,-0.0483 -2.34375,0.21875 -0.48543,0.0971 -0.91584,0.1579 -1.28125,0.1875 -0.58513,-0.0762 -0.90625,-0.33447 -0.90625,-0.71875 0,-0.6188 -1.3199,-1.125 -2.9375,-1.125 -1.6175,0 -3.2226,-0.45 -3.5625,-1 -0.3399,-0.55 -2.62,-1 -5.0625,-1 -2.6006,0 -4.00248,-0.36494 -4.28125,-1.1875 0.49409,-1.58719 2.17975,-3.5819 4.53125,-5.59375 0.4703,-0.40237 0.94867,-0.78543 1.46875,-1.1875 0.52008,-0.40207 1.06332,-0.82275 1.625,-1.21875 4.49343,-3.16804 10.19805,-6.036 15,-7.15625 0.60047,-0.14009 1.20487,-0.30858 1.8125,-0.46875 0.95474,-0.0893 1.78486,-0.1648 2.375,-0.1875 z m 45.65625,0.0625 c 0.51729,0.01 1.09115,0.24992 1.65625,0.71875 -0.29346,0.14925 -0.69321,0.21875 -1.1875,0.21875 -0.66578,0 -1.22403,-0.17852 -1.59375,-0.5 0.28628,-0.30106 0.68785,-0.4455 1.125,-0.4375 z m -7.5625,1.0625 c 0.66751,0.0118 1.64694,0.62825 2.875,1.84375 -0.1275,0.59374 -0.50367,1.03125 -0.96875,1.03125 -0.94168,0 -1.92475,-1.72974 -1.90625,-2.875 z M 166.5,278.65625 c 0.01,0.003 0.0214,-0.003 0.0312,0 0.22348,0.0593 0.44251,0.169 0.6875,0.28125 -0.76485,0.2995 -1.33227,0.27373 -1.65625,-0.0937 0.30747,-0.0938 0.6291,-0.1439 0.9375,-0.1875 z m 39.4375,0.875 c 0.19918,10e-4 0.38464,0.046 0.5625,0.0937 -0.50179,0.61194 -1.50338,1.49139 -2.65625,2.34375 -0.89442,0.66126 -1.53375,1.10217 -2,1.3125 -0.0747,-0.11373 -0.125,-0.29803 -0.125,-0.53125 0,-0.57485 -0.1491,-1.49034 -0.375,-2.3125 0.0861,0.0398 0.14161,0.058 0.25,0.125 0.6675,0.4125 1.8482,0.23845 2.625,-0.40625 0.51855,-0.43035 1.14403,-0.628 1.71875,-0.625 z m -58.0625,0.0937 c 0.57015,0.38475 1.04119,0.78454 1.40625,1.1875 -0.0136,0.0632 -0.006,0.1303 -0.0312,0.1875 -0.15394,0.0868 -0.34211,0.125 -0.53125,0.125 -0.55,0 -1,-0.45 -1,-1 0,-0.19007 0.0632,-0.34826 0.15625,-0.5 z m 18.5625,0.9375 c 0.85835,-0.0647 1.68906,0.26494 2.90625,1.0625 0.44082,0.28881 0.85879,0.62904 1.1875,0.96875 -0.31892,0.64249 -1.31942,1.1193 -2.3125,1.3125 -0.41576,-0.16548 -0.78552,-0.43423 -1,-0.78125 -0.3399,-0.55 -1.495,-1 -2.5625,-1 -0.40239,0 -0.75163,-0.0822 -1.0625,-0.1875 0.31274,-0.27201 0.68529,-0.54372 1.1875,-0.8125 0.60502,-0.32378 1.14124,-0.5237 1.65625,-0.5625 z m -35.21875,1.125 c -0.72121,0.31656 -1.4153,0.64815 -2.09375,1 -0.31648,-0.005 -0.60078,-0.10076 -0.78125,-0.28125 -0.0101,-0.0101 -0.0223,-0.0206 -0.0312,-0.0312 l 2.90625,-0.6875 z m 66.46875,0.71875 c 0.30563,0.005 0.59585,0.0903 0.875,0.21875 -0.0564,0.0977 -0.1074,0.20625 -0.1875,0.28125 -0.21253,0.1087 -0.49474,0.1672 -0.78125,0.1875 -0.0206,10e-4 -0.0417,-0.001 -0.0625,0 -0.26598,-0.0677 -0.55942,-0.23235 -0.8125,-0.4375 0.29224,-0.1738 0.63931,-0.255 0.96875,-0.25 z m 45.84375,0.1875 c 0.0558,-0.007 0.10285,0.004 0.15625,0 -0.45241,0.65581 -1.21597,1.44346 -2.3125,2.40625 -1.91968,1.68549 -3.72855,2.69781 -5.09375,3 -0.38123,-0.14671 -0.7521,-0.41101 -1.03125,-0.71875 1.48592,-1.91631 5.9255,-4.40712 8.28125,-4.6875 z m -64.0625,0.59375 c 0.0827,-0.0174 0.16881,-0.004 0.25,0 0.5052,0.0276 0.98192,0.47871 1.1875,1.40625 0.2788,1.258 0.75835,1.2566 3.59375,-0.125 0.50328,-0.24523 0.96032,-0.4023 1.375,-0.5625 -1.02444,0.5172 -2.10485,1.49815 -2.375,2.53125 -0.54023,2.06605 -0.40866,2.77928 0.75,2.4375 -0.54142,2.31686 -0.01,2.5865 2.3125,1.34375 1.64174,-0.87863 3.30445,-0.78475 4.28125,0 0.0146,0.9038 0.36519,1.55673 0.875,1.90625 1.2e-4,0.0111 0,0.0202 0,0.0312 0,1.38831 0.74419,2.22555 1.71875,2.28125 -0.0236,0.0541 -0.0615,0.131 -0.0937,0.1875 -0.36008,0.18421 -0.64003,0.47346 -0.8125,0.90625 -0.004,0.01 0.004,0.0213 0,0.0312 -0.2378,0.22336 -0.47738,0.418 -0.8125,0.6875 -0.34375,0.27645 -0.75644,0.59383 -1.21875,0.90625 -0.0205,8.6e-4 -0.0421,0 -0.0625,0 -0.68575,0 -1.61093,0.59729 -2.21875,1.40625 -0.77391,0.43822 -1.56358,0.83275 -2.21875,1.125 -4.862,2.169 -10.96615,1.8948 -12.28125,-0.5625 -0.8057,-1.50555 -1.7093,-1.87135 -3.5625,-1.40625 -3.3163,0.8324 -5.4375,-1.1082 -5.4375,-5 0,-0.26285 0.0164,-0.50616 0.0312,-0.75 0.28683,-0.25166 0.56678,-0.5191 0.75,-0.8125 0.7129,-1.1414 2.31,-2 3.75,-2 1.3876,0 2.7927,-0.72785 3.125,-1.59375 0.4049,-1.0546 1.367,-1.3784 2.875,-1 1.6815,0.4221 2.361,0.0498 2.75,-1.4375 0.29837,-1.14103 0.88956,-1.81541 1.46875,-1.9375 z m 8.1875,0.21875 c 0.21728,-0.0214 0.41348,-0.0139 0.625,0 0.63455,0.0417 1.24009,0.23051 1.96875,0.5625 0.51875,0.23637 0.92947,0.49763 1.28125,0.75 -0.27321,0.15243 -0.5601,0.28565 -0.875,0.34375 -0.9447,0.17418 -1.9375,-0.11075 -1.9375,-0.84375 0,-0.6725 -0.51619,-0.81332 -1.21875,-0.625 -0.14074,-0.062 -0.33209,-0.0805 -0.53125,-0.0625 0.23188,-0.0532 0.47022,-0.10359 0.6875,-0.125 z M -60.375,283.7187 c -3.301572,0.38017 -6.740087,0.80624 -10.78125,1.34375 l 0,15.25 0.875,-0.21875 0,0.15625 0.78125,-0.0312 c 0.2418,1.44635 0.55425,1.58163 0.96875,1.40625 0.302598,-0.12805 3.135906,-0.24684 6.9375,-0.375 0.274995,-5.85814 0.745342,-11.71113 1.21875,-17.53125 z m 221.59375,0.875 c 0.23527,0.008 0.45011,0.084 0.625,0.1875 7e-5,0.0111 0,0.0202 0,0.0312 0,0.26219 -0.11443,0.51198 -0.3125,0.71875 -0.0323,0.0201 -0.0608,0.0439 -0.0937,0.0625 -0.79487,0.44649 -1.8115,0.44979 -2.34375,-0.0312 0.22646,-0.29649 0.56597,-0.57146 1.03125,-0.75 0.40887,-0.15695 0.77354,-0.22905 1.09375,-0.21875 z m -8.1875,2.6875 c 0.13179,0.005 0.28401,0.0329 0.4375,0.0625 0.28525,0.055 0.54643,0.19309 0.78125,0.34375 -0.16927,0.41068 -0.52832,0.78897 -0.96875,1.03125 -0.0307,0.0169 -0.0624,0.0159 -0.0937,0.0312 -0.30535,0.0236 -0.61084,-0.0796 -0.84375,-0.3125 -0.19365,-0.19365 -0.30289,-0.40319 -0.40625,-0.59375 0.2087,-0.40409 0.56659,-0.5822 1.09375,-0.5625 z m 53.8125,1.875 c 0.33715,0 0.61085,0.0645 0.84375,0.125 -0.004,0.0337 0.005,0.0591 0,0.0937 -0.10059,0.70492 -0.43521,1.28056 -0.84375,1.71875 -0.9431,0.0899 -2.00747,-0.20112 -2.5625,-0.90625 -0.005,-0.007 0.005,-0.0242 0,-0.0312 0.48204,-0.6418 1.36575,-1 2.5625,-1 z m -9.59375,1.375 c 0.17243,0.006 0.35169,0.0421 0.53125,0.0937 -0.33763,0.2988 -0.73744,0.53125 -1.0625,0.53125 -0.15076,0 -0.32832,-0.0799 -0.5,-0.15625 0.036,-0.041 0.054,-0.0851 0.0937,-0.125 0.24327,-0.24327 0.57293,-0.35575 0.9375,-0.34375 z m 0.1875,1.71875 c 0.54414,-0.0516 1.1577,0.20648 2,0.71875 -0.16997,0.37742 -0.46034,0.74128 -0.875,1.03125 -0.25806,0.0846 -0.54242,0.125 -0.84375,0.125 -0.87079,0 -1.49891,-0.42178 -1.8125,-1 0.5834,-0.53627 1.04111,-0.8285 1.53125,-0.875 z m 114.3125,0.125 c 0.29765,0.009 0.58846,0.11535 0.84375,0.28125 -0.0418,0.1371 -0.10359,0.27049 -0.1875,0.40625 -0.27222,0.44045 -0.71241,0.82959 -1.125,1 -0.01,-0.003 -0.0215,0.003 -0.0312,0 -0.40477,-0.1317 -0.73031,-0.43944 -0.9375,-0.8125 0.0793,-0.13302 0.16494,-0.25869 0.28125,-0.375 0.34488,-0.34488 0.76107,-0.5113 1.15625,-0.5 z m -49.4375,1.78125 c 0.72683,0 1.54263,0.72905 2.15625,1.65625 0.005,0.007 -0.005,0.0242 0,0.0312 0.004,0.009 -0.004,0.0222 0,0.0312 0.0905,0.50883 0.0771,0.95431 -0.125,1.28125 -0.27025,0.43734 -0.85351,0.70383 -1.53125,0.84375 -0.72003,-0.14226 -1.60251,-0.53125 -2.5,-1.1875 -0.38098,-0.27857 -0.63827,-0.4888 -0.84375,-0.6875 0.62726,-1.08995 1.73291,-1.96875 2.84375,-1.96875 z m 37.03125,1.9375 c 2.68772,-0.0132 5.12775,1.07925 7.25,3.25 0.92183,0.94286 1.65338,1.97341 2.1875,2.96875 0.004,0.008 -0.004,0.0233 0,0.0312 0.0371,0.17986 0.0625,0.35039 0.0625,0.5 0,0.36607 -0.0154,0.64673 -0.0625,0.90625 -0.87328,0.3204 -2.5165,0.375 -5.59375,0.375 -5.6162,0 -6.894,-0.3314 -9,-2.4375 -1.0765,-1.07648 -1.78327,-2.01617 -2.125,-2.8125 0.33505,-0.5968 1.05219,-1.04519 2.1875,-1.5625 1.76239,-0.80299 3.48112,-1.21075 5.09375,-1.21875 z M 343.75,296.25 c 4.52225,0.005 10.3258,0.10865 17.875,0.3125 22.7015,0.613 27.1142,0.9784 30.5625,2.5625 0.11523,0.0529 0.17206,0.0754 0.28125,0.125 0.0273,0.0809 0.0774,0.1648 0.0937,0.25 0.1954,1.015 -0.0849,2.2724 -0.625,2.8125 -0.6005,0.6005 -12.3708,0.9715 -30.25,0.9375 -16.0813,-0.0305 -29.95105,0.29515 -30.84375,0.71875 -2.7413,1.301 -5.678,0.19745 -7.4375,-2.78125 -0.30962,-0.52414 -0.54998,-0.97572 -0.75,-1.40625 0.7313,-0.97704 2.87165,-1.68769 7,-2.65625 2.5785,-0.60494 6.55667,-0.883 14.09375,-0.875 z m -192.71875,0.59375 c 0.44347,-0.0576 0.90902,0.0733 1.28125,0.3125 -0.0243,0.18194 -0.0516,0.37112 -0.125,0.5625 -0.18129,0.47239 -0.49666,0.82843 -0.875,1.0625 -0.008,0.005 -0.0232,-0.005 -0.0312,0 -0.3187,0.0529 -0.65767,-0.0639 -0.9375,-0.34375 -0.26565,-0.26563 -0.42933,-0.58337 -0.53125,-0.90625 0.3612,-0.40645 0.79644,-0.6326 1.21875,-0.6875 z m 124,0.40625 c -0.12736,0.17946 -0.24022,0.35055 -0.4375,0.59375 -0.9509,1.1723 -0.9972,1.4617 -0.125,0.9375 1.6074,-0.96591 3.33046,-0.52277 4.34375,0.75 0.031,0.33008 0.0285,0.6901 0.0312,1.09375 -0.14983,0.34919 -0.33646,0.68622 -0.5625,1.03125 -1.7276,2.6365 -5.3744,3.28185 -7.375,1.28125 -0.12815,-0.12816 -0.20609,-0.25658 -0.3125,-0.375 0.074,-1.50606 0.37591,-2.89871 0.84375,-4 0.81865,-0.71577 2.19943,-1.14605 3.59375,-1.3125 z m 126.09375,1.0625 c 0.8495,-0.0437 1.8825,0.0497 3.125,0.1875 1.39469,1.05042 1.80053,2.90329 1.03125,4.4375 -0.26842,-0.18051 -0.60928,-0.0636 -1.0625,0.3125 -0.50894,0.42241 -0.81887,0.9622 -1.03125,1.59375 -2.45405,0.90389 -4.93803,-1.73052 -4.0625,-5.21875 0.0987,-0.39308 0.22702,-0.70495 0.34375,-1 0.48221,-0.15012 1.00301,-0.2789 1.65625,-0.3125 z m 9.8125,0.5625 c 1.07558,0.0395 2.20416,0.0684 3.34375,0.0937 0.0136,0.006 0.0177,0.0254 0.0312,0.0312 2.1484,0.9788 2.3843,1.44025 1.375,2.65625 -1.7368,2.0927 -3.7297,1.83325 -4.5,-0.59375 -0.31701,-0.99882 -0.40056,-1.72822 -0.25,-2.1875 z m -177.96875,1.28125 c 0.23824,-0.003 0.44043,0.0216 0.625,0.0625 -0.28963,0.57479 -0.84728,1.16273 -1.65625,1.625 -0.93881,0.38819 -2.25474,0.72527 -3.5625,0.9375 -1.2764,0.2071 -2.20805,0.2294 -2.8125,0.125 2.25145,-1.34981 5.56904,-2.7269 7.40625,-2.75 z m 196.75,0 c 1.06072,-0.016 0.9289,0.33107 0.0625,1.375 -1.5627,1.8829 -5.4087,2.15955 -4.8125,0.34375 0.2257,-0.6875 1.70495,-1.40945 3.28125,-1.59375 0.6292,-0.0736 1.11517,-0.12 1.46875,-0.125 z m -289.6875,0.125 c 0.13179,0.005 0.28401,0.0329 0.4375,0.0625 0.27621,0.0532 0.54493,0.17718 0.78125,0.3125 -0.24153,0.61709 -0.89795,1.13518 -1.65625,1.28125 -0.0479,0.009 -0.0792,0.0242 -0.125,0.0312 -0.32844,-0.18424 -0.54685,-0.52156 -0.59375,-0.9375 0.19207,-0.52774 0.5579,-0.7724 1.15625,-0.75 z m 184.125,5.46875 c 2.16771,1.03934 6.55371,3.40011 11.125,5.96875 0.24866,0.36831 1.14254,1.05085 2.34375,1.84375 -0.72348,-0.29136 -1.28241,-0.37384 -1.53125,-0.125 -0.3097,0.3097 1.9284,1.98525 5,3.71875 5.6015,3.1613 9.96915,7.46725 11.90625,11.71875 1.10001,2.41427 1.60225,2.7918 1.6875,1.25 1.36117,2.54646 2.42397,4.59679 3.1875,6.21875 3.4e-4,0.0104 -7.4e-4,0.0208 0,0.0312 0.0163,0.23063 0.1587,0.46656 0.375,0.75 0.19506,0.43666 0.36215,0.86093 0.5,1.21875 3.4e-4,0.0104 -7.4e-4,0.0208 0,0.0312 0.015,0.213 0.0959,0.45978 0.28125,0.71875 0.29005,0.86949 0.42366,1.52385 0.40625,2.03125 -0.0428,0.1041 -0.0774,0.15844 -0.125,0.28125 -0.40117,1.0349 -1.14411,1.58129 -2.0625,1.71875 -1.4823,-0.0635 -3.43788,-1.31925 -5.125,-3.53125 -1.7268,-2.2638 -3.26085,-3.3677 -4.21875,-3 -0.0288,0.011 -0.0636,0.0213 -0.0937,0.0312 -0.27922,-0.0673 -0.55852,-0.0855 -0.78125,0 -0.2064,0.0792 -0.53643,0.109 -0.96875,0.0937 -0.16729,-0.006 -0.4,-0.0437 -0.59375,-0.0625 -3.70929,-0.6065 -9.75234,-3.44094 -13,-6.375 -2.182,-1.9714 -5.4995,-5.97425 -7.375,-8.90625 -2.18119,-3.40974 -2.9974,-5.09334 -3.1875,-7.65625 -0.002,-0.0327 0.002,-0.0607 0,-0.0937 0.081,-1.06511 0.10064,-1.99161 0,-2.625 0.005,-0.14116 -0.006,-0.25895 0,-0.40625 0.0589,-1.40707 0.17903,-2.68561 0.3125,-3.65625 0.42806,-0.16094 0.90563,-0.40987 1.34375,-0.6875 0.26399,-0.16726 0.46094,-0.32655 0.59375,-0.5 z m 98.03125,6.8125 c -0.10576,-0.009 -0.21721,0.0136 -0.34375,0.0312 -0.16872,0.0237 -0.33718,0.0505 -0.53125,0.125 -0.35411,0.13587 -0.56343,0.3185 -0.6875,0.53125 -0.27063,-0.002 -0.26589,0.29016 -0.0625,0.75 0.004,0.008 -0.004,0.0222 0,0.0312 0.10104,0.40485 0.33122,0.91136 0.71875,1.625 0.003,0.0125 -0.004,0.0183 0,0.0312 0.10079,0.37244 0.4405,0.97115 1.03125,1.78125 1.0429,1.4304 2.30165,2.63925 2.78125,2.65625 0.39065,0.0141 0.33804,-0.43554 0.0625,-1.03125 0.10504,0.0113 0.20709,0.0312 0.3125,0.0312 3.0628,0.009 2.8982,-2.7531 -0.25,-4.1875 -1.375,-0.6265 -2.5,-1.493 -2.5,-1.9375 0,-0.25001 -0.21398,-0.41137 -0.53125,-0.4375 z m -80.625,3.40625 c 3.18935,1.97288 5.89602,4.2952 7.90625,6.75 -2.48122,-2.4345 -5.38352,-4.9234 -7.90625,-6.75 z m -279,0.65625 1.0625,2.8125 c 0.5288,1.37622 0.9684,3.60836 1.0625,5.28125 -0.0601,0.0283 -0.1423,0.0485 -0.1875,0.0937 -1.0063,1.00621 -0.76745,3.18764 0.21875,4.21875 0.0937,1.0877 0.6372,2.13763 1.5,2.46875 0.2377,0.0912 0.444,0.19918 0.625,0.3125 -0.2298,0.46612 -0.7482,0.84656 -1.5,1.03125 -0.3191,-0.11491 -0.6851,-0.35367 -1.125,-0.71875 -1.2003,-0.9962 -1.8731,-1.03315 -2.75,-0.15625 -0.6367,0.6366 -1.5263,1.15625 -2,1.15625 -1.0569,0 5e-5,-7.59145 1.78125,-12.71875 l 1.3125,-3.78125 z m 124.09375,0.6875 c 0.0241,-0.004 0.0401,0.002 0.0625,0 -0.45551,0.29089 -1.03474,0.51254 -1.625,0.625 -0.023,-0.0183 -0.041,-0.0417 -0.0625,-0.0625 0.47327,-0.26953 1.04462,-0.4776 1.625,-0.5625 z M 68.8125,322.125 c 0.3596,-0.0224 0.72865,0.0975 1.03125,0.3125 0.002,0.0521 0,0.10255 0,0.15625 0,0.22709 -0.01255,0.41875 -0.03125,0.625 -0.2796,0.32781 -0.6173,0.58088 -0.9375,0.6875 -0.8606,0.2866 -1.2211,-0.20375 -1,-1.34375 0.01,-0.0318 0.02425,-0.062 0.03125,-0.0937 0.2948,-0.20152 0.60695,-0.32505 0.90625,-0.34375 z m 187.21875,4.03125 c 1.52214,0.0444 3.09226,0.71971 4.5,2.03125 0.9603,0.89465 1.76972,1.34853 2.0625,1.1875 0.098,0.79302 -0.1164,1.60092 -0.6875,2.5 -0.5282,0.83161 -1.78515,1.39953 -3.3125,1.625 -0.13772,0 -0.31267,0.0286 -0.5,0.0625 -1.94937,0.19187 -4.25228,-0.12795 -6.125,-0.96875 -1.29406,-0.58102 -2.12566,-0.99548 -2.59375,-1.40625 0.37001,-0.61691 0.86314,-1.36231 1.40625,-2.125 1.40401,-1.97173 3.29297,-2.96335 5.25,-2.90625 z M 129.375,329.375 c 1.54564,0.0223 2.62619,0.37894 3.8125,1.15625 1.3547,0.8876 3.5124,1.625 4.8125,1.625 3.61849,0 12.61158,6.69915 15.40625,10.6875 -0.0112,0.14189 -0.0256,0.26443 -0.0937,0.375 -0.18153,0.29371 -0.15241,0.55096 0.0312,0.71875 -0.22243,0.18266 -0.50971,0.34793 -0.84375,0.5625 -1.46731,0.94258 -3.28044,1.58221 -5.25,1.90625 -0.0102,0.002 -0.0213,-0.002 -0.0312,0 -0.60649,-0.004 -1.42868,0.0587 -2.5,0.21875 -0.0774,0.0116 -0.14305,0.0206 -0.21875,0.0312 -2.62768,0.0481 -5.30644,-0.43748 -7.53125,-1.46875 -5.1973,-2.4092 -9.25,-6.30685 -9.25,-8.90625 0,-1.5454 -0.86508,-2.04695 -4.25,-2.40625 -1.33512,-0.14174 -2.47311,-0.11378 -3.4375,0.0312 -0.90602,-0.6522 -1.60076,-0.4929 -2.71875,0.625 -0.51861,0.51865 -1.02863,0.93379 -1.53125,1.1875 -0.0313,0.0158 -0.0626,0.0165 -0.0937,0.0312 -0.62415,0.11723 -1.28571,0.0833 -1.84375,-0.0937 -1.46381,-0.46456 -2.57088,-2.01251 -2.84375,-3.46875 -0.002,-0.0102 0.002,-0.0211 0,-0.0312 0.89265,-1.38855 3.35876,-2.19262 7,-1.9375 1.7749,0.1244 5.35525,-0.11035 7.96875,-0.53125 1.37325,-0.2212 2.47886,-0.3259 3.40625,-0.3125 z m -21.65625,4 c 0.0308,-0.003 0.0637,-5.2e-4 0.0937,0 -0.14693,0.95475 -0.77621,1.86654 -1.53125,2.15625 -0.0682,0.0262 -0.125,0.0421 -0.1875,0.0625 -0.033,-0.0236 -0.0674,-0.0607 -0.0937,-0.0937 -0.005,-0.007 0.005,-0.0242 0,-0.0312 0.32136,-1.27005 1.08671,-2.03135 1.71875,-2.09375 z m 134.5625,0.84375 c 0.21784,-0.0155 0.42865,-0.003 0.625,0 0.63247,0.009 1.14744,0.13552 1.53125,0.34375 -0.0737,0.90968 -0.45557,2.06887 -1.15625,3.53125 -0.85418,1.78271 -1.73716,3.29355 -2.1875,3.8125 -1.13119,-0.37298 -1.87767,-1.28669 -2.25,-2.375 0.002,-0.31726 0.0343,-0.65535 0.0625,-1 0.2641,-3.2251 0.7306,-3.94195 2.6875,-4.21875 0.24479,-0.0346 0.46966,-0.0783 0.6875,-0.0937 z M 86.8125,339.0625 c 1.09419,-0.0312 2.10811,0.12232 2.8125,0.4375 -0.25567,1.01298 -1.11722,2.36616 -2.15625,3.3125 -5.3615,4.8836 -9.61,4.858 -8.375,-0.0625 0.043,-0.17044 0.1211,-0.333 0.1875,-0.5 0.3165,-0.36309 0.6524,-0.70869 1.0625,-1.03125 1.7237,-1.3559 4.3084,-2.09475 6.46875,-2.15625 z m 19.09375,0.71875 c 0.14302,-0.006 0.28105,0.0149 0.40625,0.0312 -0.19549,0.39489 -0.50507,0.83468 -0.9375,1.3125 -0.13207,0.14594 -0.25789,0.27555 -0.40625,0.40625 -0.0348,0.0264 -0.0588,0.0682 -0.0937,0.0937 -0.11825,0.0994 -0.24904,0.19135 -0.375,0.28125 -0.13448,0.088 -0.2696,0.1706 -0.40625,0.25 -0.0324,0.0195 -0.0611,0.0435 -0.0937,0.0625 -0.23815,0.13424 -0.48068,0.23693 -0.71875,0.34375 -0.17913,0.0804 -0.35572,0.15465 -0.53125,0.21875 -0.12267,0.0416 -0.25261,0.0911 -0.375,0.125 -0.01,0.003 -0.0212,-0.003 -0.0312,0 -0.5316,0.14435 -1.05777,0.22475 -1.53125,0.21875 -0.12659,-0.002 -0.2251,-0.0186 -0.34375,-0.0312 -0.16742,-0.0425 -0.32266,-0.12955 -0.4375,-0.21875 0.99198,-1.43349 4.05144,-3.01765 5.875,-3.09375 z m 227.5625,1.59375 c 2.83447,-0.19755 7.45466,1.91079 12.03125,5.71875 0.0462,0.0384 0.0788,0.0862 0.125,0.125 0.58011,0.64109 1.16499,1.33941 1.71875,2.09375 3.7637,5.1273 7.8743,8.84375 9.8125,8.84375 0.19683,0 2.2762,2.22022 3.875,3.71875 0.33197,1.57611 1.06856,3.62036 1.75,4.9375 0.65874,1.79235 1.44964,3.34375 1.90625,3.34375 0.86337,2.48571 1.69424,6.12501 2.0625,9.1875 0.18952,1.57612 0.40468,3.23704 0.625,4.8125 -0.12984,1.15873 -0.0976,2.85409 0.0937,4.78125 0.43348,4.36537 0.32285,5.74643 -1.1875,8 -0.0206,0.02 -0.042,0.0434 -0.0625,0.0625 -1.46277,1.36577 -2.5,0.30727 -2.5,-2.90625 0,-1.6064 -0.72335,-4.6997 -1.59375,-6.875 -1.4001,-3.4993 -2.1203,-4.08165 -6.25,-5.03125 -8.734,-2.0081 -14.6644,-3.8885 -19.0625,-6.0625 -5.9633,-2.9477 -14.09375,-10.7077 -14.09375,-13.4375 0,-1.1947 -0.66125,-3.0574 -1.46875,-4.125 -1.67379,-2.21302 -1.87917,-3.45704 -0.15625,-4.84375 0.85537,-0.45284 1.69031,-0.79522 2.25,-0.96875 1.70677,-0.52917 3.03899,-1.4554 3.9375,-2.6875 2.42982,-1.71822 3.3741,-3.40718 3.40625,-5.71875 0.0264,-1.89138 1.08057,-2.85022 2.78125,-2.96875 z m -92.84375,7.71875 c 0.0183,-0.002 0.0439,2.8e-4 0.0625,0 -0.0156,0.063 -0.011,0.1263 -0.0312,0.1875 -0.0423,0.12753 -0.0849,0.18565 -0.125,0.28125 -0.0684,-0.0962 -0.13735,-0.18086 -0.21875,-0.3125 0.0918,-0.0793 0.19438,-0.14405 0.3125,-0.15625 z M 93.78125,356.875 93.4375,361.65625 c -0.28243,4.20883 -0.24027,6.3362 0.09375,6.25 -0.78269,4.45864 -2.13854,7.0274 -5.53125,11.96875 -0.51167,0.74524 -1.01316,1.48129 -1.5,2.125 0.28787,-0.96884 0.01,-0.74098 -1.21875,0.90625 -0.83279,1.11656 -1.55199,1.77811 -2.125,2.03125 -0.8144,-0.97921 -0.34204,-5.09836 1.09375,-7.875 0.8405,-1.6253 2.84225,-6.8428 4.46875,-11.625 0.32684,-0.96091 0.68199,-1.89456 1.03125,-2.8125 0.6049,0.0542 0.96875,-0.27157 0.96875,-0.90625 0,-0.7468 0.926,-2.42035 2.0625,-3.71875 l 1,-1.125 z m 149.46875,7.75 1.8125,2.6875 c 1.0016,1.4855 1.683,3.4623 1.5,4.375 -0.5409,2.6975 -4.07515,-1.86325 -3.65625,-4.71875 L 243.25,364.625 z m 15.5625,5.90625 c -0.61489,-0.0463 -1.338,0.2178 -2.4375,0.71875 -2.7499,1.253 -3.18485,2.00265 -1.90625,3.28125 0.7427,0.7428 6.1553,0.0322 7.125,-0.9375 0.2823,-0.2823 -0.19055,-1.19055 -1.03125,-2.03125 -0.63135,-0.63135 -1.13511,-0.98495 -1.75,-1.03125 z m 950.25,11.90625 c -0.4004,1.54033 -0.8079,3.08804 -1.2187,4.625 0.033,0.002 0.096,-10e-4 0.125,0 0.3357,0.0135 0.623,-0.32517 0.8437,-1.90625 l 0.031,0 0,-0.25 c 0.074,-0.61164 0.1544,-1.46767 0.2187,-2.46875 z M 241.71875,402.375 c 0.0104,2.5e-4 0.0211,-4.1e-4 0.0312,0 0.0968,0.41726 0.47531,0.82503 1.21875,1.125 0.12811,0.0517 0.22948,0.0806 0.34375,0.125 0.006,0.18686 -0.004,0.36624 -0.125,0.5625 -0.3164,0.512 -0.98365,0.9375 -1.46875,0.9375 -1.4005,0 -2.14965,-1.8089 -1.03125,-2.5 0.32324,-0.1998 0.68863,-0.258 1.03125,-0.25 z M 75.625,405.40625 c -0.438209,0.85864 -0.483063,1.54477 -0.25,0.9375 0.150969,-0.39342 0.234682,-0.7093 0.25,-0.9375 z m -15.5625,6.03125 c -1.844971,1.85011 -1.603446,3.04129 -0.34375,0.6875 0.143182,-0.26756 0.253081,-0.48609 0.34375,-0.6875 z m 175.21875,5.6875 c 0.2426,0 0.4375,0.45 0.4375,1 0,0.55 -0.48,1 -1.0625,1 -0.5825,0 -0.7774,-0.45 -0.4375,-1 0.3399,-0.55 0.82,-1 1.0625,-1 z m 147.4375,0.0625 c 0.58259,0.12939 1,0.46659 1,0.875 0,0.43304 -0.19227,0.82927 -0.46875,1.125 -0.2312,0.12234 -0.47877,0.30474 -0.78125,0.5 -0.008,0.005 -0.0236,-0.005 -0.0312,0 -0.38485,0.0989 -0.80167,0.0421 -1.09375,-0.25 -0.76151,-0.76151 -0.7786,-1.53951 -0.25,-1.96875 -0.098,0.39135 0.10064,0.6875 0.5625,0.6875 0.57098,0 1.04432,-0.43351 1.0625,-0.96875 z M -20.625,420.65625 c -0.01107,-0.0912 -1.237659,1.30203 -1.71875,1.78125 l 0.75,-0.53125 c 0.318242,-0.3586 0.641469,-0.73043 0.90625,-1.125 0.05405,-0.0806 0.06408,-0.11197 0.0625,-0.125 z m 12.03125,0 c 2.134769,3.85575 4.1599229,7.77447 6.25,11.65625 -0.5019661,-3.94365 1.67437596,-7.22975 5.59375,-8.15625 0.9756503,-0.54958 2.1045223,-1.01838 3.375,-1.375 -0.3262626,-0.0355 -0.7414511,-0.0962 -1.03125,-0.125 -2.946127,-0.29253 -8.757352,-1.12399 -14.1875,-2 z m 241.3125,1.46875 c 0.55,0 1,0.45 1,1 0,0.55 -0.45,1 -1,1 -0.55,0 -1,-0.45 -1,-1 0,-0.55 0.45,-1 1,-1 z m -197.5,2.53125 c 0.0073,0.0321 0.02144,0.0623 0.03125,0.0937 l 0.0625,0 c -0.03059,-0.0319 -0.06021,-0.0645 -0.09375,-0.0937 z m -37.1875,9.40625 c -0.7658153,0.44643 -1.3774682,0.8 -1.90625,1.125 0.02124,2.3809 -0.02886,4.77587 -0.03125,7.15625 0.00767,3.30455 -0.014666,2.44325 -0.8125,6.71875 1.5084906,-0.32643 2.9732666,-0.69057 4.375,-1.1875 0.12806375,0.0971 0.27550466,0.18639 0.40625,0.28125 0.74525229,-1.90275 2.1476325,-1.89452 4.40625,-0.71875 -0.0011,-1.53347 0.4048638,-2.90092 1.125,-4.03125 C 5.620281,443.27245 5.652901,443.13227 5.6875,443 5.666777,442.991 5.646565,442.9827 5.625,442.9688 1.3723221,440.22112 -1.029924,437.02932 -1.96875,434.06255 z M 16.125,463.78125 c 0.240283,1.00941 0.426806,2.01951 0.5625,3.0625 0.08259,-1.35991 -0.190593,-2.37584 -0.5625,-3.0625 z m -38.34375,9.0625 c -0.01024,-0.006 -0.009,0.01 0,0.0937 0.06519,0.60471 0.09378,1.20509 0.125,1.8125 0.226548,-0.53001 -0.06543,-1.87113 -0.125,-1.90625 z M -16.75,527.75 c 0.842341,0.20019 1.662905,0.4342 2.46875,0.71875 0.01841,-0.16795 0.04515,-0.35802 0.0625,-0.53125 -1.194389,-0.14017 -2.016947,-0.20972 -2.53125,-0.1875 z m 7.5625,16.15625 c -0.6202782,2.2433 -1.288433,4.17077 -1.5625,5.1875 -0.08413,0.21369 -0.105368,0.29118 -0.1875,0.5 0.289766,2.03123 0.117172,3.86818 -0.1875,5.78125 0.802843,-2.50168 1.7191206,-5.16145 2.6875,-7.53125 -0.2502065,-1.31362 -0.503432,-2.6155 -0.75,-3.9375 z m 647.25,52.6875 c -10e-4,0.0207 10e-4,0.0418 0,0.0625 0.0237,-0.016 0.0388,-0.0465 0.0625,-0.0625 -0.0172,-0.008 -0.0453,0.008 -0.0625,0 z m -146.65625,2.75 c -10.19271,0.46702 -13.49279,0.7211 -34.9375,2.5625 -1.23866,0.10636 -2.48056,0.23222 -3.71875,0.34375 1.72399,3.90546 2.53171,8.40676 2.1875,13.25 4.61808,0.60169 9.24185,1.19396 13.84375,1.6875 28.11839,3.01564 29.74972,2.80649 56.53125,4.375 8.21969,0.50485 16.43946,0.9501 24.65625,1.5 4.82464,0.32288 9.68217,0.4394 14.46875,1.125 2.30582,0.33027 6.30407,-0.3859 6.71875,1.90625 0.25203,1.3931 0.40774,2.84223 0.5,4.28125 0.83536,-0.0992 1.66485,-0.21163 2.5,-0.3125 3.02111,4.36907 8.33034,7.93417 9.84375,12.84375 2.45773,-1.35911 4.90296,-2.72304 7.3125,-4.09375 3.0628,-3.03393 6.15414,-6.03512 9.28125,-9 0.11733,-4.19635 0.40361,-8.39112 0.90625,-12.5625 -0.36045,0.009 -0.74245,0.0414 -1.03125,0.0312 -7.5686,-0.26535 -15.17359,-2.03109 -22.53125,-4.0625 -5.2073,1.06362 -10.79336,0.82013 -15.90625,0.96875 -5.74677,-0.18035 -11.50384,-0.33224 -17.25,-0.53125 -14.70122,-0.50916 -22.83938,-0.98705 -37.375,-1.125 -2.52578,-0.024 -6.24253,2.30981 -7.5625,0.15625 -3.32736,-5.42863 -6.04353,-9.6266 -8.4375,-13.34375 z M -10.375,600.5 c 0.01303,2.49888 0.08112,5.00194 0.09375,7.5 0.213623,0.2463 0.251912,1.54489 0.375,2.09375 0.08329,0.37142 0.159664,0.75631 0.21875,1.125 0.9571728,-0.21193 1.9315507,-0.36216 2.90625,-0.5 -0.4364188,-1.38066 -0.8720616,-2.75602 -1.34375,-4.125 -0.7638207,-2.21684 -1.5105353,-4.17973 -2.25,-6.09375 z m 286.59375,4.9375 c -1.45724,0.12177 -2.92041,0.22727 -4.375,0.375 -8.18018,0.83079 -16.28668,2.16856 -24.4375,3.25 -7.02221,1.00457 -14.08606,1.71555 -21.0625,3 -0.15538,0.0286 -0.31401,0.062 -0.46875,0.0937 4.9203,0.0177 9.83104,0.13126 14.75,0.25 7.44748,0.67237 14.91933,0.75722 22.375,1.3125 4.06383,0.30267 8.12348,0.73113 12.1875,1.03125 4.08466,0.30165 8.16351,0.47412 12.25,0.75 4.47237,0.30194 8.93553,0.67437 13.40625,1 0.92963,0.059 9.26574,0.70616 12.25,0.65625 0.18741,-0.003 0.37529,-0.0256 0.5625,-0.0312 -4.00757,-1.77915 -7.92984,-3.9151 -11.25,-6.125 -0.73261,-0.48764 -0.92801,-1.58662 -1.6875,-2.03125 -1.57398,-0.92147 -3.34951,-1.39348 -5.0625,-2.03125 -4.47823,-0.0337 -8.67656,-0.19569 -14.21875,-0.8125 -1.74919,-0.19468 -3.47807,-0.42632 -5.21875,-0.6875 z m -111.625,4.28125 c 0.22773,1.09872 0.47347,2.07109 0.71875,2.75 0.14575,0.008 0.29175,-0.008 0.4375,0 -0.10184,-0.89508 -0.22349,-1.79475 -0.34375,-2.6875 -0.27177,-0.0247 -0.53479,-0.039 -0.8125,-0.0625 z m 443.875,10.8125 c -2.55859,1.94042 -3.56059,3.66297 -3.46875,5.15625 0.66206,-0.60478 1.33184,-1.21427 2,-1.8125 0.16637,-0.14896 0.33294,-0.31789 0.5,-0.46875 0.30207,-0.92182 0.60622,-1.78633 0.96875,-2.875 z m -259.25,50.34375 c -4.21401,0.74208 -8.24475,1.44305 -12.28125,2.15625 3.98168,10e-4 9.04404,-9.8e-4 13.15625,0 -0.32878,-0.76392 -0.6182,-1.48453 -0.875,-2.15625 z"
       transform="translate(49.999996,159.36219)"
       id="path3030"
       inkscape:connector-curvature="0" />
  </g>
</svg>
